# author: headus 3D tools
#  using: ply2obj v1.12
#   from: uvlayout v2.11.04
# 36 vertices
v -0.5000000 -0.5000000 0.0300000
v 0.5000002 -0.5000000 0.0300000
v -0.5000000 0.5000002 0.0300000
v 0.5000002 0.5000002 0.0300000
v -0.6000000 0.6000001 0.0300000
v 0.6000001 0.6000001 0.0300000
v 0.6000001 0.6000001 -0.0000000
v -0.6000000 0.6000001 -0.0000000
v -0.6000000 -0.6000000 -0.0000000
v 0.6000001 -0.6000000 -0.0000000
v 0.6000001 -0.6000000 0.0300000
v -0.6000000 -0.6000000 0.0300000
v -0.5302879 0.5302871 0.0573420
v -0.5302879 -0.5302879 0.0573420
v 0.5302871 -0.5302879 0.0573420
v 0.5302871 0.5302871 0.0573420
v 0.0000000 -0.5000000 0.0300000
v 0.0000000 -0.5302879 0.0573420
v 0.0000000 -0.6000000 0.0300000
v 0.0000000 -0.6000000 -0.0000000
v 0.0000000 0.5000002 0.0300000
v 0.0000000 0.5302871 0.0573420
v 0.0000000 0.6000001 0.0300000
v 0.0000000 0.6000001 -0.0000000
v -0.5000000 0.0000000 0.0300000
v -0.5302879 0.0000000 0.0573420
v -0.6000000 0.0000000 0.0300000
v -0.6000000 0.0000000 -0.0000000
v 0.5000002 0.0000000 0.0300000
v 0.5302871 0.0000000 0.0573420
v 0.6000001 0.0000000 0.0300000
v 0.6000001 0.0000000 -0.0000000
v -0.5000000 -0.5000000 0.0300000
v 0.5000002 -0.5000000 0.0300000
v -0.5000000 0.5000002 0.0300000
v 0.5000002 0.5000002 0.0300000
# 36 normals
vn -0.471647 0.471647 0.745010
vn 0.000000 0.647226 0.762254
vn 0.000000 1.000000 0.000000
vn -0.707044 0.707044 0.000000
vn 0.000000 -0.647226 0.762254
vn 0.000000 -1.000000 0.000000
vn 0.707044 -0.707044 0.000000
vn 0.471647 -0.471647 0.745010
vn 0.647226 0.000000 0.762254
vn 1.000000 0.000000 0.000000
vn 0.707044 0.707044 0.000000
vn 0.471647 0.471647 0.745010
vn -0.707044 -0.707044 0.000000
vn -0.471647 -0.471647 0.745010
vn -0.647226 0.000000 0.762254
vn -1.000000 0.000000 0.000000
vn 0.380394 -0.380394 0.842825
vn 0.000000 -0.670024 0.742202
vn 0.000000 0.024782 0.999664
vn -0.105933 0.105933 0.988616
vn -0.380394 0.380394 0.842825
vn 0.000000 0.670024 0.742202
vn 0.000000 -0.024782 0.999664
vn 0.105933 -0.105933 0.988616
vn -0.380394 -0.380394 0.842825
vn -0.670024 0.000000 0.742202
vn 0.024782 0.000000 0.999664
vn 0.105933 0.105933 0.988616
vn 0.380394 0.380394 0.842825
vn 0.670024 0.000000 0.742202
vn -0.024782 0.000000 0.999664
vn -0.105933 -0.105933 0.988616
vn 0.000000 0.000000 1.000000
vn 0.000000 0.000000 1.000000
vn 0.000000 0.000000 1.000000
vn 0.000000 0.000000 1.000000
# 52 uv coords
vt 0.572566 0.186083
vt 0.572566 0.133330
vt 0.569842 0.031466
vt 0.569841 0.084220
vt 0.186083 0.569841
vt 0.133328 0.569841
vt 0.031468 0.425427
vt 0.084221 0.425427
vt 0.220708 0.220708
vt 0.925235 0.220708
vt 0.925235 0.925235
vt 0.220708 0.925235
vt 0.031882 0.051814
vt 0.084697 0.002725
vt 0.084696 0.848130
vt 0.031880 0.799040
vt 0.002725 0.425427
vt 0.003108 0.073140
vt 0.105832 0.002732
vt 0.105357 0.425427
vt 0.003107 0.777715
vt 0.105831 0.848123
vt 0.185665 0.943455
vt 0.132851 0.992543
vt 0.132852 0.147139
vt 0.185665 0.196229
vt 0.214826 0.569841
vt 0.214444 0.922129
vt 0.111721 0.992537
vt 0.112188 0.569841
vt 0.214438 0.217553
vt 0.111717 0.147145
vt 0.217555 0.003109
vt 0.569842 0.002725
vt 0.196229 0.031884
vt 0.922129 0.003107
vt 0.943455 0.031885
vt 0.147139 0.084700
vt 0.992543 0.084703
vt 0.569841 0.105359
vt 0.147145 0.105835
vt 0.992537 0.105832
vt 0.198952 0.185669
vt 0.149864 0.132854
vt 0.995268 0.132852
vt 0.946178 0.185667
vt 0.572566 0.214827
vt 0.220277 0.214443
vt 0.149870 0.111719
vt 0.572566 0.112194
vt 0.924854 0.214441
vt 0.995261 0.111717
# 25 polygons
usemtl initialShadingGroup
s 1
g PictureFrameShort
f 5/38/1 23/4/2 24/40/3 8/41/4
f 19/2/5 20/50/6 10/52/7 11/45/8
f 31/8/9 32/20/10 7/22/11 6/15/12
f 9/32/13 12/25/14 27/6/15 28/30/16
f 3/33/17 21/34/18 22/3/19 13/35/20
f 2/51/21 17/47/22 18/1/23 15/46/24
f 4/21/25 29/17/26 30/7/27 16/16/28
f 1/31/29 25/27/30 26/5/31 14/26/32
f 14/26/32 26/5/31 27/6/15 12/25/14
f 15/46/24 18/1/23 19/2/5 11/45/8
f 16/16/28 30/7/27 31/8/9 6/15/12
f 13/35/20 22/3/19 23/4/2 5/38/1
f 18/1/23 17/47/22 1/48/29 14/43/32
f 19/2/5 18/1/23 14/43/32 12/44/14
f 9/49/13 20/50/6 19/2/5 12/44/14
f 22/3/19 21/34/18 4/36/25 16/37/28
f 23/4/2 22/3/19 16/37/28 6/39/12
f 24/40/3 23/4/2 6/39/12 7/42/11
f 26/5/31 25/27/30 3/28/17 13/23/20
f 27/6/15 26/5/31 13/23/20 5/24/1
f 28/30/16 27/6/15 5/24/1 8/29/4
f 30/7/27 29/17/26 2/18/21 15/13/24
f 31/8/9 30/7/27 15/13/24 11/14/8
f 11/14/8 10/19/7 32/20/10 31/8/9
s off
g PictureImageShort
f 33/9/33 34/10/34 36/11/35 35/12/36
# h3dt: 36 52 36 25
