# author: headus 3D tools
#  using: ply2obj v1.12
#   from: uvlayout v2.11.04
# 52 vertices
v -1.0000000 -0.5000000 0.0300000
v -1.0000000 0.5000002 0.0300000
v -1.1000000 0.6000001 0.0300000
v -1.1000000 0.6000001 -0.0000000
v -1.1000000 -0.6000000 -0.0000000
v -1.1000000 -0.6000000 0.0300000
v -1.0302879 0.5302871 0.0573420
v -1.0302879 -0.5302870 0.0573420
v 1.0000004 -0.5000000 0.0300000
v 1.0000004 0.5000002 0.0300000
v 1.1000000 0.6000001 0.0300000
v 1.1000000 0.6000001 -0.0000000
v 1.1000000 -0.6000000 -0.0000000
v 1.1000000 -0.6000000 0.0300000
v 1.0302880 -0.5302870 0.0573420
v 1.0302880 0.5302871 0.0573420
v 0.0000002 -0.5000000 0.0300000
v 0.0000002 -0.5302870 0.0573420
v 0.0000002 -0.6000000 0.0300000
v 0.0000002 -0.6000000 -0.0000000
v 0.0000002 0.5000002 0.0300000
v 0.0000002 0.5302871 0.0573420
v 0.0000002 0.6000001 0.0300000
v 0.0000002 0.6000001 -0.0000000
v -1.0000000 0.0000000 0.0300000
v -1.0302879 0.0000000 0.0573420
v -1.1000000 0.0000000 0.0300000
v -1.1000000 0.0000000 -0.0000000
v -0.5000000 -0.5000000 0.0300000
v -0.5151440 -0.5302870 0.0573420
v -0.5500000 -0.6000000 0.0300000
v -0.5500000 -0.6000000 -0.0000000
v -0.5000000 0.5000002 0.0300000
v -0.5151440 0.5302871 0.0573420
v -0.5500000 0.6000001 0.0300000
v -0.5500000 0.6000001 -0.0000000
v 1.0000004 0.0000000 0.0300000
v 1.0302880 0.0000000 0.0573420
v 1.1000000 0.0000000 0.0300000
v 1.1000000 0.0000000 -0.0000000
v 0.5500000 0.6000001 -0.0000000
v 0.5500000 0.6000001 0.0300000
v 0.5151440 0.5302871 0.0573420
v 0.5000000 0.5000002 0.0300000
v 0.5000000 -0.5000000 0.0300000
v 0.5151440 -0.5302870 0.0573420
v 0.5500000 -0.6000000 0.0300000
v 0.5500000 -0.6000000 -0.0000000
v -1.0000000 -0.5000000 0.0300000
v 1.0000004 -0.5000000 0.0300000
v -1.0000000 0.5000002 0.0300000
v 1.0000004 0.5000002 0.0300000
# 52 normals
vn -0.737136 -0.675700 0.000000
vn -0.487395 -0.450681 0.747787
vn -0.647226 0.000000 0.762254
vn -1.000000 0.000000 0.000000
vn 0.383263 0.377587 0.842825
vn 0.670024 0.000000 0.742202
vn -0.024782 0.000000 0.999664
vn -0.108863 -0.099829 0.989013
vn -0.487395 0.450681 0.747787
vn 0.000000 0.641610 0.766893
vn 0.000000 1.000000 0.000000
vn -0.737136 0.675700 0.000000
vn 0.000000 -0.641610 0.766893
vn 0.000000 -1.000000 0.000000
vn 0.737136 -0.675700 0.000000
vn 0.487395 -0.450681 0.747787
vn 0.647226 0.000000 0.762254
vn 1.000000 0.000000 0.000000
vn 0.737136 0.675700 0.000000
vn 0.487395 0.450681 0.747787
vn 0.383263 -0.377587 0.842825
vn 0.000000 -0.670024 0.742202
vn 0.000000 0.012940 0.999908
vn -0.108863 0.099829 0.989013
vn -0.383263 0.377587 0.842825
vn 0.000000 0.670024 0.742202
vn 0.000000 -0.012940 0.999908
vn 0.108863 -0.099829 0.989013
vn -0.383263 -0.377556 0.842825
vn -0.670024 0.000000 0.742202
vn 0.024782 0.000000 0.999664
vn 0.108863 0.099829 0.989013
vn 0.000000 -0.012940 0.999908
vn 0.000000 0.670024 0.742202
vn 0.000000 0.670024 0.742202
vn 0.000000 -0.012940 0.999908
vn 0.000000 -0.641610 0.766893
vn 0.000000 -0.641610 0.766893
vn 0.000000 -1.000000 0.000000
vn 0.000000 -1.000000 0.000000
vn 0.000000 0.012940 0.999908
vn 0.000000 -0.670024 0.742202
vn 0.000000 0.641610 0.766893
vn 0.000000 1.000000 0.000000
vn 0.000000 -0.670024 0.742202
vn 0.000000 0.012940 0.999908
vn 0.000000 0.641610 0.766893
vn 0.000000 1.000000 0.000000
vn 0.000000 0.000000 1.000000
vn 0.000000 0.000000 1.000000
vn 0.000000 0.000000 1.000000
vn 0.000000 0.000000 1.000000
# 68 uv coords
vt 0.499400 0.051246
vt 0.499400 0.017444
vt 0.499400 0.975449
vt 0.499400 0.941645
vt 0.725630 0.901875
vt 0.725630 0.868076
vt 0.266851 0.050999
vt 0.251163 0.017169
vt 0.731949 0.975203
vt 0.747636 0.941372
vt 0.273735 0.581173
vt 0.273737 0.547373
vt 0.251164 0.941364
vt 0.266852 0.975196
vt 0.731947 0.050990
vt 0.747636 0.017157
vt 0.093294 0.075802
vt 0.996058 0.075802
vt 0.996058 0.527184
vt 0.093294 0.527184
vt 0.995884 0.016460
vt 0.964482 0.050344
vt 0.725138 0.069422
vt 0.499400 0.069672
vt 0.499400 0.003911
vt 0.747618 0.003613
vt 0.950848 0.068793
vt 0.995860 0.002917
vt 0.273660 0.069426
vt 0.034316 0.050342
vt 0.002916 0.016455
vt 0.251181 0.003623
vt 0.047950 0.068796
vt 0.002940 0.002916
vt 0.034367 0.580911
vt 0.002916 0.547070
vt 0.544558 0.547080
vt 0.513104 0.580912
vt 0.273736 0.599591
vt 0.048030 0.599347
vt 0.002920 0.533528
vt 0.273737 0.533834
vt 0.499443 0.599339
vt 0.544553 0.533535
vt 0.499400 0.993873
vt 0.273661 0.993627
vt 0.725140 0.993630
vt 0.047951 0.992996
vt 0.034316 0.974543
vt 0.950850 0.993002
vt 0.964484 0.974546
vt 0.002916 0.940657
vt 0.251182 0.927823
vt 0.499400 0.928107
vt 0.995883 0.940659
vt 0.747618 0.927828
vt 0.002941 0.927114
vt 0.995859 0.927121
vt 0.725630 0.920289
vt 0.499924 0.920041
vt 0.486261 0.901603
vt 0.951337 0.920045
vt 0.965000 0.901607
vt 0.454811 0.867765
vt 0.996450 0.867768
vt 0.454815 0.854227
vt 0.725630 0.854531
vt 0.996446 0.854231
# 37 polygons
usemtl initialShadingGroup
s 1
g PictureFrameLong
f 5/68/1 6/65/2 27/6/3 28/67/4
f 1/62/5 25/59/6 26/5/7 8/63/8
f 8/63/8 26/5/7 27/6/3 6/65/2
f 3/55/9 35/10/10 36/56/11 4/58/12
f 47/16/13 48/26/14 13/28/15 14/21/16
f 39/12/17 40/42/18 12/44/19 11/37/20
f 2/50/21 33/47/22 34/9/23 7/51/24
f 9/27/25 45/23/26 46/15/27 15/22/28
f 10/43/29 37/39/30 38/11/31 16/38/32
f 15/22/28 46/15/27 47/16/13 14/21/16
f 16/38/32 38/11/31 39/12/17 11/37/20
f 7/51/24 34/9/23 35/10/10 3/55/9
f 18/1/33 17/24/34 29/29/35 30/7/36
f 19/2/37 18/1/33 30/7/36 31/8/38
f 31/8/38 32/32/39 20/25/40 19/2/37
f 43/14/41 44/46/42 10/48/29 16/49/32
f 42/13/43 43/14/41 16/49/32 11/52/20
f 41/53/44 42/13/43 11/52/20 12/57/19
f 26/5/7 25/59/6 2/60/21 7/61/24
f 27/6/3 26/5/7 7/61/24 3/64/9
f 28/67/4 27/6/3 3/64/9 4/66/12
f 30/7/36 29/29/35 1/33/5 8/30/8
f 31/8/38 30/7/36 8/30/8 6/31/2
f 5/34/1 32/32/39 31/8/38 6/31/2
f 34/9/23 33/47/22 21/45/45 22/3/46
f 35/10/10 34/9/23 22/3/46 23/4/47
f 36/56/11 35/10/10 23/4/47 24/54/48
f 38/11/31 37/39/30 9/40/25 15/35/28
f 39/12/17 38/11/31 15/35/28 14/36/16
f 14/36/16 13/41/15 40/42/18 39/12/17
f 24/54/48 23/4/47 42/13/43 41/53/44
f 23/4/47 22/3/46 43/14/41 42/13/43
f 22/3/46 21/45/45 44/46/42 43/14/41
f 46/15/27 45/23/26 17/24/34 18/1/33
f 47/16/13 46/15/27 18/1/33 19/2/37
f 19/2/37 20/25/40 48/26/14 47/16/13
s off
g PictureImageLong
f 49/17/49 50/18/50 52/19/51 51/20/52
# h3dt: 52 68 52 37
