# This file uses centimeters as units for non-parametric coordinates.

mtllib DeskTop.mtl
g default
v 0.000000 0.900000 1.000000
v 1.000000 0.900000 1.000000
v 1.000000 1.000000 1.000000
v 0.000000 1.000000 1.000000
v 1.000000 1.000000 -0.000000
v 0.000000 1.000000 -0.000000
v 1.000000 0.900000 -0.000000
v 0.000000 0.900000 -0.000000
vt 0.340306 0.822644
vt 0.340237 0.639676
vt 0.358534 0.639666
vt 0.358602 0.822640
vt 0.541506 0.639599
vt 0.541573 0.822570
vt 0.559802 0.639591
vt 0.559871 0.822561
vt 0.757397 0.579882
vt 0.940367 0.579882
vt 0.940367 0.762852
vt 0.757397 0.762852
vt 0.358526 0.621371
vt 0.541499 0.621302
vt 0.541579 0.840868
vt 0.358611 0.840937
vn 0.000000 0.000000 1.000000
vn 0.000000 0.000000 1.000000
vn 0.000000 0.000000 1.000000
vn 0.000000 0.000000 1.000000
vn 0.000000 1.000000 0.000000
vn 0.000000 1.000000 0.000000
vn 0.000000 1.000000 0.000000
vn 0.000000 1.000000 0.000000
vn 0.000000 0.000000 -1.000000
vn 0.000000 0.000000 -1.000000
vn 0.000000 0.000000 -1.000000
vn 0.000000 0.000000 -1.000000
vn 0.000000 -1.000000 0.000000
vn 0.000000 -1.000000 0.000000
vn 0.000000 -1.000000 0.000000
vn 0.000000 -1.000000 0.000000
vn 1.000000 0.000000 0.000000
vn 1.000000 0.000000 0.000000
vn 1.000000 0.000000 0.000000
vn 1.000000 0.000000 0.000000
vn -1.000000 0.000000 0.000000
vn -1.000000 0.000000 0.000000
vn -1.000000 0.000000 0.000000
vn -1.000000 0.000000 0.000000
s off
g DeskTop Desk_Group1
usemtl initialShadingGroup
f 1/1/1 2/2/2 3/3/3 4/4/4
f 4/4/5 3/3/6 5/5/7 6/6/8
f 6/6/9 5/5/10 7/7/11 8/8/12
f 8/9/13 7/10/14 2/11/15 1/12/16
f 2/13/17 7/14/18 5/5/19 3/3/20
f 8/15/21 1/16/22 4/4/23 6/6/24
