# This file uses centimeters as units for non-parametric coordinates.

mtllib DeskDrawer.mtl
g default
v 0.900000 0.000000 0.000000
v 0.900000 0.000000 -1.000000
v 0.900000 0.050000 -0.950000
v 0.900000 0.050000 -0.050000
v 0.900000 0.900000 -1.000000
v 0.900000 0.900000 0.000000
v 0.900000 0.850000 -0.050000
v 0.900000 0.850000 -0.950000
v 0.050000 0.050000 -0.950000
v 0.050000 0.050000 -0.050000
v 0.050000 0.850000 -0.050000
v 0.050000 0.850000 -0.950000
v 0.900000 0.475000 0.000000
v 0.900000 0.425000 0.000000
v 0.900000 0.425000 -0.050000
v 0.900000 0.475000 -0.050000
v 0.900000 0.425000 -1.000000
v 0.900000 0.475000 -1.000000
v 0.900000 0.475000 -0.950000
v 0.900000 0.425000 -0.950000
v 0.050000 0.425000 -0.950000
v 0.050000 0.425000 -0.050000
v 0.050000 0.475000 -0.950000
v 0.050000 0.475000 -0.050000
vt 0.568056 0.579884
vt 0.751020 0.579882
vt 0.741872 0.589031
vt 0.577203 0.589034
vt 0.751027 0.744556
vt 0.568060 0.744559
vt 0.577208 0.735409
vt 0.741879 0.735407
vt 0.158488 0.390568
vt 0.323163 0.390533
vt 0.323207 0.546059
vt 0.158509 0.546089
vt 0.323591 0.382620
vt 0.158919 0.382912
vt 0.158656 0.227386
vt 0.323305 0.227096
vt 0.568050 0.666797
vt 0.568048 0.657647
vt 0.577199 0.657647
vt 0.577200 0.666796
vt 0.751032 0.657643
vt 0.751032 0.666792
vt 0.741882 0.666793
vt 0.741881 0.657644
vt 0.478760 0.546221
vt 0.478690 0.614834
vt 0.323192 0.614674
vt 0.158543 0.614704
vt 0.003043 0.614896
vt 0.002959 0.546283
vt 0.323209 0.158482
vt 0.478759 0.158385
vt 0.478803 0.226998
vt 0.158511 0.158769
vt 0.003157 0.227833
vt 0.002959 0.159219
vt 0.322925 0.002959
vt 0.158253 0.003245
vt 0.323231 0.770199
vt 0.158556 0.770228
vn 1.000000 -0.000003 0.000000
vn 1.000000 -0.000003 0.000000
vn 1.000000 -0.000003 0.000000
vn 1.000000 -0.000003 0.000000
vn 1.000000 0.000003 0.000000
vn 1.000000 0.000003 0.000000
vn 1.000000 0.000003 0.000000
vn 1.000000 0.000003 0.000000
vn 0.000000 1.000000 0.000000
vn 0.000000 1.000000 0.000000
vn 0.000000 1.000000 0.000000
vn 0.000000 1.000000 0.000000
vn 0.000000 -1.000000 0.000000
vn 0.000000 -1.000000 0.000000
vn 0.000000 -1.000000 0.000000
vn 0.000000 -1.000000 0.000000
vn 1.000000 0.000000 0.000000
vn 1.000000 0.000000 0.000000
vn 1.000000 0.000000 0.000000
vn 1.000000 0.000000 0.000000
vn 1.000000 0.000000 0.000000
vn 1.000000 0.000000 0.000000
vn 1.000000 0.000000 0.000000
vn 1.000000 0.000000 0.000000
vn 1.000000 0.000000 0.000000
vn 1.000000 0.000000 0.000000
vn 1.000000 0.000000 0.000000
vn 1.000000 0.000000 0.000000
vn 1.000000 0.000000 0.000000
vn 1.000000 0.000000 0.000000
vn 1.000000 0.000000 0.000000
vn 1.000000 0.000000 0.000000
vn 0.000000 0.000000 1.000000
vn 0.000000 0.000000 1.000000
vn 0.000000 0.000000 1.000000
vn 0.000000 0.000000 1.000000
vn 0.000000 0.000000 -1.000000
vn 0.000000 0.000000 -1.000000
vn 0.000000 0.000000 -1.000000
vn 0.000000 0.000000 -1.000000
vn 1.000000 0.000000 0.000000
vn 1.000000 0.000000 0.000000
vn 1.000000 0.000000 0.000000
vn 1.000000 0.000000 0.000000
vn 1.000000 0.000000 0.000000
vn 1.000000 0.000000 0.000000
vn 1.000000 0.000000 0.000000
vn 1.000000 0.000000 0.000000
vn 0.000000 0.000000 1.000000
vn 0.000000 0.000000 1.000000
vn 0.000000 0.000000 1.000000
vn 0.000000 0.000000 1.000000
vn 1.000000 0.000000 0.000000
vn 1.000000 0.000000 0.000000
vn 1.000000 0.000000 0.000000
vn 1.000000 0.000000 0.000000
vn 0.000000 0.000000 -1.000000
vn 0.000000 0.000000 -1.000000
vn 0.000000 0.000000 -1.000000
vn 0.000000 0.000000 -1.000000
vn 1.000000 0.000000 0.000000
vn 1.000000 0.000000 0.000000
vn 1.000000 0.000000 0.000000
vn 1.000000 0.000000 0.000000
vn 0.000000 1.000000 0.000000
vn 0.000000 1.000000 0.000000
vn 0.000000 1.000000 0.000000
vn 0.000000 1.000000 0.000000
vn 0.000000 -1.000000 0.000000
vn 0.000000 -1.000000 0.000000
vn 0.000000 -1.000000 0.000000
vn 0.000000 -1.000000 0.000000
vn 1.000000 0.000000 0.000000
vn 1.000000 0.000000 0.000000
vn 1.000000 0.000000 0.000000
vn 1.000000 0.000000 0.000000
s off
g DeskDrawer Desk_Group1
usemtl initialShadingGroup
f 1/1/1 2/2/2 3/3/3 4/4/4
f 5/5/5 6/6/6 7/7/7 8/8/8
f 4/9/9 3/10/10 9/11/11 10/12/12
f 8/13/13 7/14/14 11/15/15 12/16/16
f 13/17/17 14/18/18 15/19/19 16/20/20
f 17/21/21 18/22/22 19/23/23 20/24/24
f 2/2/25 17/21/26 20/24/27 3/3/28
f 15/19/29 14/18/30 1/1/31 4/4/32
f 3/25/33 20/26/34 21/27/35 9/11/36
f 22/28/37 15/29/38 4/30/39 10/12/40
f 9/11/41 21/27/42 22/28/43 10/12/44
f 19/23/45 18/22/46 5/5/47 8/8/48
f 23/31/49 19/32/50 8/33/51 12/16/52
f 24/34/53 23/31/54 12/16/55 11/15/56
f 7/35/57 16/36/58 24/34/59 11/15/60
f 6/6/61 13/17/62 16/20/63 7/7/64
f 19/37/65 23/31/66 24/34/67 16/38/68
f 21/27/69 20/39/70 15/40/71 22/28/72
f 19/23/73 16/20/74 15/19/75 20/24/76
