# This file uses centimeters as units for non-parametric coordinates.

mtllib DeskCornerIn.mtl
g default
v 0.900000 0.900000 0.900000
v 0.900000 0.000000 0.900000
v 1.000000 0.000000 0.900000
v 1.000000 0.900000 0.900000
v 0.900000 0.900000 1.000000
v 0.900000 0.000000 1.000000
vt 0.021256 0.401360
vt 0.021256 0.236686
vt 0.039553 0.236686
vt 0.039553 0.401360
vt 0.002959 0.401360
vt 0.002959 0.236686
vn 0.000000 0.000000 1.000000
vn 0.000000 0.000000 1.000000
vn 0.000000 0.000000 1.000000
vn 0.000000 0.000000 1.000000
vn 1.000000 0.000000 0.000000
vn 1.000000 0.000000 0.000000
vn 1.000000 0.000000 0.000000
vn 1.000000 0.000000 0.000000
s off
g DeskCornerIn Desk_Group1
usemtl initialShadingGroup
f 1/1/1 2/2/2 3/3/3 4/4/4
f 2/2/5 1/1/6 5/5/7 6/6/8
