# This file uses centimeters as units for non-parametric coordinates.

mtllib MetalList.mtl
g default
v -0.199999 -0.200000 -0.999999
v 0.000000 -0.200000 -0.999999
v 0.000000 -0.200000 0.000000
v -0.199999 -0.200000 0.000000
v 0.000000 0.000000 -0.999999
v 0.000000 0.000000 0.000000
v -0.199999 0.000000 -0.999999
v -0.199999 0.000000 0.000000
v -0.199999 -0.200000 -3.999998
v -0.199999 -0.200000 -3.000000
v -0.199999 0.000000 -3.000000
v -0.199999 0.000000 -3.999998
v 0.000000 -0.200000 -3.999998
v 0.000000 -0.200000 -3.000000
v 0.000000 0.000000 -3.000000
v 0.000000 0.000000 -3.999998
v -0.199999 0.000000 -1.999998
v -0.199999 -0.200000 -1.999998
v 0.000000 -0.200000 -1.999998
v 0.000000 0.000000 -1.999998
vt 0.094698 0.884020
vt 0.116509 0.884020
vt 0.116508 0.993076
vt 0.094698 0.993076
vt 0.138320 0.884020
vt 0.138320 0.993076
vt 0.072887 0.884020
vt 0.072886 0.993076
vt 0.094702 0.556851
vt 0.094701 0.665907
vt 0.072890 0.665907
vt 0.072891 0.556851
vt 0.116514 0.556851
vt 0.116512 0.665907
vt 0.138323 0.665908
vt 0.138325 0.556852
vt 0.072889 0.774963
vt 0.094700 0.774963
vt 0.116511 0.774963
vt 0.138322 0.774964
vn -0.707109 -0.707105 0.000000
vn 0.707109 -0.707105 0.000000
vn 0.707109 -0.707105 0.000000
vn -0.707109 -0.707105 0.000000
vn 1.000000 0.000000 0.000000
vn 1.000000 0.000000 0.000000
vn -1.000000 0.000000 0.000000
vn -1.000000 0.000000 0.000000
vn -0.707107 -0.707107 0.000000
vn -0.707107 -0.707107 0.000000
vn -1.000000 0.000000 0.000000
vn -1.000000 0.000000 0.000000
vn 0.707107 -0.707107 0.000000
vn 0.707107 -0.707107 0.000000
vn 1.000000 0.000000 0.000000
vn 1.000000 0.000000 0.000000
vn -1.000000 0.000000 0.000000
vn -0.707107 -0.707107 0.000000
vn 0.707107 -0.707107 0.000000
vn 1.000000 0.000000 0.000000
s 1
g MetalList
usemtl initialShadingGroup
f 1/1/1 2/2/2 3/3/3 4/4/4
f 3/3/3 2/2/2 5/5/5 6/6/6
f 7/7/7 1/1/1 4/4/4 8/8/8
f 9/9/9 10/10/10 11/11/11 12/12/12
f 9/9/9 13/13/13 14/14/14 10/10/10
f 15/15/15 14/14/14 13/13/13 16/16/16
f 17/17/17 18/18/18 1/1/1 7/7/7
f 18/18/18 19/19/19 2/2/2 1/1/1
f 5/5/5 2/2/2 19/19/19 20/20/20
f 20/20/20 19/19/19 14/14/14 15/15/15
f 10/10/10 14/14/14 19/19/19 18/18/18
f 11/11/11 10/10/10 18/18/18 17/17/17
