# This file uses centimeters as units for non-parametric coordinates.

mtllib MetalListShort.mtl
g default
v -0.199999 -0.200000 -0.999999
v 0.000000 -0.200000 -0.999999
v 0.000000 -0.200000 0.000000
v -0.199999 -0.200000 0.000000
v 0.000000 0.000000 -0.999999
v 0.000000 0.000000 0.000000
v -0.199999 0.000000 -0.999999
v -0.199999 0.000000 0.000000
vt 0.948925 0.002915
vt 0.970736 0.002915
vt 0.970736 0.111971
vt 0.948925 0.111971
vt 0.992547 0.002915
vt 0.992547 0.111971
vt 0.927114 0.002915
vt 0.927114 0.111971
vn -0.707109 -0.707105 0.000000
vn 0.707109 -0.707105 0.000000
vn 0.707109 -0.707105 0.000000
vn -0.707109 -0.707105 0.000000
vn 1.000000 0.000000 0.000000
vn 1.000000 0.000000 0.000000
vn -1.000000 0.000000 0.000000
vn -1.000000 0.000000 0.000000
s 1
g MetalListShort
usemtl initialShadingGroup
f 1/1/1 2/2/2 3/3/3 4/4/4
f 3/3/3 2/2/2 5/5/5 6/6/6
f 7/7/7 1/1/1 4/4/4 8/8/8
