# This file uses centimeters as units for non-parametric coordinates.

mtllib MetalListSlanted.mtl
g default
v -0.200000 0.000000 0.000000
v -0.000001 0.000000 0.000000
v -0.200000 3.999998 -6.928198
v -0.000001 3.999998 -6.928198
v -0.200000 3.999998 -7.999998
v -0.000001 3.999998 -7.999998
v -0.200000 -0.200000 0.000000
v -0.200000 3.799998 -6.928198
v -0.200000 3.799998 -7.999998
v -0.000001 -0.200000 0.000000
v -0.000001 3.799998 -6.928198
v -0.000001 3.799998 -7.999998
v -1.199999 -0.200000 0.000000
v -1.000000 -0.200000 0.000000
v -1.199999 0.000000 0.000000
v -1.000000 0.000000 0.000000
v -1.199999 0.000000 -3.999998
v -1.000000 0.000000 -3.999998
v -1.199999 -0.200000 -3.999998
v -1.000000 -0.200000 -3.999998
v -1.199999 0.000000 -1.999998
v -1.199999 -0.200000 -1.999998
v -1.000000 -0.200000 -1.999998
v -1.000000 0.000000 -1.999998
v -1.199999 0.000000 -0.999999
v -1.199999 -0.200000 -0.999999
v -1.000000 -0.200000 -0.999999
v -1.000000 0.000000 -0.999999
v -1.000000 0.000000 -3.000000
v -1.000000 -0.200000 -3.000000
v -1.199999 -0.200000 -3.000000
v -1.199999 0.000000 -3.000000
v -1.199999 -0.200000 0.000000
v -1.000000 -0.200000 0.000000
v -1.199999 0.000000 0.000000
v -1.000000 0.000000 0.000000
v -1.199999 0.000000 -0.999999
v -1.199999 -0.200000 -0.999999
v -1.000000 -0.200000 -0.999999
v -1.000000 0.000000 -0.999999
vt 0.045620 0.996100
vt 0.046017 0.122191
vt 0.066687 0.116646
vt 0.064434 0.985986
vt 0.045141 0.003891
vt 0.066382 0.002917
vt 0.023585 0.122191
vt 0.023997 0.996100
vt 0.005183 0.985986
vt 0.002915 0.116645
vt 0.024470 0.003891
vt 0.003229 0.002915
vn 0.500006 -0.749994 -0.433015
vn 0.755364 -0.586142 -0.293025
vn 1.000000 0.000000 0.000000
vn 1.000000 0.000000 0.000000
vn 0.707107 -0.707107 0.000000
vn 1.000000 0.000000 0.000000
vn -0.755364 -0.586142 -0.293025
vn -0.500006 -0.749994 -0.433015
vn -1.000000 0.000000 0.000000
vn -1.000000 0.000000 0.000000
vn -0.707107 -0.707107 0.000000
vn -1.000000 0.000000 0.000000
s 1
g MetalListSlanted
usemtl initialShadingGroup
f 10/1/1 11/2/2 4/3/3 2/4/4
f 4/3/3 11/2/2 12/5/5 6/6/6
f 8/7/7 7/8/8 1/9/9 3/10/10
f 9/11/11 8/7/7 3/10/10 5/12/12
f 8/7/7 9/11/11 12/5/5 11/2/2
f 7/8/8 8/7/7 11/2/2 10/1/1
