# This file uses centimeters as units for non-parametric coordinates.

mtllib PillarCornerMid.mtl
g default
v -0.475438 0.000000 0.475438
v 0.475438 0.000000 0.475438
v -0.475438 0.300555 0.475438
v 0.475438 0.300555 0.475438
v -0.475438 0.415431 0.475438
v 0.475438 0.415431 0.475438
v -0.427239 0.357993 0.427239
v 0.427239 0.357993 0.427239
v -0.475438 0.455674 0.475438
v 0.475438 0.455674 0.475438
v -0.406119 0.527754 0.406119
v 0.406119 0.527754 0.406119
v -0.406119 0.564824 0.406119
v 0.406119 0.564824 0.406119
v -0.373235 0.564824 0.373236
v 0.373235 0.564824 0.373236
v -0.317310 0.722256 0.317310
v 0.317310 0.722256 0.317310
v -0.284632 0.722256 0.284632
v 0.284632 0.722256 0.284632
v -0.452237 0.495592 0.452237
v 0.452237 0.495592 0.452237
v -0.284632 0.722256 0.000000
v -0.317310 0.722256 0.000000
v -0.373235 0.564824 0.000000
v -0.406119 0.564824 0.000000
v -0.406119 0.527754 0.000000
v -0.452237 0.495592 0.000000
v -0.475438 0.455674 0.000000
v -0.475438 0.415431 0.000000
v -0.427239 0.357993 0.000000
v -0.475438 0.300555 0.000000
v -0.475438 0.000000 0.000000
v 0.475438 0.000000 0.000000
v 0.475438 0.300555 0.000000
v 0.427239 0.357993 0.000000
v 0.475438 0.415431 0.000000
v 0.475438 0.455674 0.000000
v 0.452237 0.495592 0.000000
v 0.406119 0.527754 0.000000
v 0.406119 0.564824 0.000000
v 0.373235 0.564824 0.000000
v 0.317310 0.722256 0.000000
v 0.284632 0.722256 0.000000
vt 0.274127 0.745663
vt 0.823489 0.744916
vt 0.549858 0.830801
vt 0.726508 0.086608
vt 0.726535 0.129735
vt 0.549771 0.873928
vt 0.563676 0.852392
vt 0.809411 0.852887
vt 0.726542 0.141309
vt 0.549748 0.885501
vt 0.803211 0.915459
vt 0.253380 0.916149
vt 0.746503 0.181404
vt 0.569602 0.925649
vt 0.755965 0.190855
vt 0.579040 0.935125
vt 0.772079 0.238892
vt 0.595027 0.983205
vt 0.781483 0.248284
vt 0.604406 0.992621
vt 0.556394 0.898793
vt 0.816507 0.899316
vt 0.266719 0.900043
vt 0.569624 0.914989
vt 0.227515 0.984192
vt 0.243827 0.936222
vt 0.253329 0.926810
vt 0.273455 0.886798
vt 0.273510 0.875224
vt 0.259751 0.853595
vt 0.273715 0.832097
vt 0.550032 0.744366
vt 0.733223 0.154582
vt 0.746496 0.170743
vt 0.777534 0.983572
vt 0.793714 0.935557
vt 0.803190 0.926119
vt 0.823205 0.886052
vt 0.823229 0.874478
vt 0.740383 0.108163
vt 0.823315 0.831351
vt 0.726453 0.000173
vt 0.218073 0.993544
vt 0.768117 0.992950
vt 0.136217 0.993154
vt 0.136262 0.983757
vt 0.136491 0.935710
vt 0.136536 0.926254
vt 0.136587 0.915593
vt 0.136664 0.899424
vt 0.136727 0.886146
vt 0.136782 0.874573
vt 0.136885 0.853009
vt 0.136988 0.831446
vt 0.137400 0.745012
vt 0.863182 0.000086
vt 0.863237 0.086522
vt 0.863250 0.108085
vt 0.863264 0.129649
vt 0.863271 0.141222
vt 0.863280 0.154500
vt 0.863290 0.170670
vt 0.863297 0.181330
vt 0.863303 0.190787
vt 0.863333 0.238834
vt 0.863339 0.248232
vn 0.000000 0.000000 1.000000
vn 0.000000 0.000000 1.000000
vn 0.000000 0.000000 1.000000
vn 0.000000 0.000000 1.000000
vn 1.000000 0.000000 0.000000
vn 1.000000 0.000000 0.000000
vn 1.000000 0.000000 0.000000
vn 1.000000 0.000000 0.000000
vn -1.000000 0.000000 0.000000
vn -1.000000 0.000000 0.000000
vn -1.000000 0.000000 0.000000
vn -1.000000 0.000000 0.000000
vn 0.000000 0.642810 0.766026
vn 0.000000 0.642810 0.766026
vn 0.000000 -0.000000 1.000000
vn 0.000000 -0.000000 1.000000
vn -1.000000 -0.000000 0.000000
vn -0.766025 0.642810 0.000000
vn -0.766025 0.642810 0.000000
vn -1.000000 -0.000000 0.000000
vn 0.766025 0.642810 0.000000
vn 0.766025 0.642810 0.000000
vn 1.000000 -0.000000 0.000000
vn 1.000000 -0.000000 0.000000
vn -0.766025 -0.642811 0.000000
vn -0.766025 -0.642811 0.000000
vn 0.766025 -0.642811 0.000000
vn 0.766025 -0.642811 0.000000
vn 0.000000 -0.642811 0.766025
vn 0.000000 -0.642811 0.766025
vn 0.000000 0.000000 1.000000
vn 0.000000 0.000000 1.000000
vn 0.000000 0.000000 1.000000
vn 0.000000 0.000000 1.000000
vn -1.000000 0.000000 0.000000
vn -1.000000 0.000000 0.000000
vn -1.000000 0.000000 0.000000
vn -1.000000 0.000000 0.000000
vn 1.000000 0.000000 0.000000
vn 1.000000 0.000000 0.000000
vn 1.000000 0.000000 0.000000
vn 1.000000 0.000000 0.000000
vn 0.000000 0.502505 0.864575
vn 0.000000 0.502505 0.864575
vn 0.000000 0.619737 0.784809
vn 0.000000 0.619737 0.784809
vn -0.726666 0.686991 0.000000
vn -0.864574 0.502505 0.000000
vn -0.864574 0.502505 0.000000
vn -0.784810 0.619737 0.000000
vn 0.864574 0.502505 0.000000
vn 0.864574 0.502505 0.000000
vn 0.726666 0.686991 0.000000
vn 0.784809 0.619737 0.000000
vn 0.000000 0.000000 1.000000
vn 0.000000 0.000000 1.000000
vn 0.000000 0.000000 1.000000
vn 0.000000 0.000000 1.000000
vn -1.000000 0.000000 0.000000
vn -1.000000 0.000000 0.000000
vn -1.000000 0.000000 0.000000
vn -1.000000 0.000000 0.000000
vn 1.000000 0.000000 0.000000
vn 1.000000 0.000000 0.000000
vn 1.000000 0.000000 0.000000
vn 1.000000 0.000000 0.000000
vn 0.000000 1.000000 -0.000001
vn 0.000000 1.000000 -0.000001
vn 0.000000 1.000000 -0.000001
vn 0.000000 1.000000 -0.000001
vn 0.000000 1.000000 0.000000
vn 0.000000 1.000000 0.000000
vn 0.000000 1.000000 0.000000
vn 0.000000 1.000000 0.000000
vn 0.000000 1.000000 0.000000
vn 0.000000 1.000000 0.000000
vn 0.000000 1.000000 0.000000
vn 0.000000 1.000000 0.000000
vn 0.000000 0.334744 0.942309
vn 0.000000 0.334744 0.942309
vn 0.000000 0.334744 0.942309
vn 0.000000 0.334744 0.942309
vn -0.942309 0.334743 0.000000
vn -0.942309 0.334743 0.000000
vn -0.942309 0.334743 0.000000
vn -0.942309 0.334743 0.000000
vn 0.942309 0.334743 0.000000
vn 0.942309 0.334743 0.000000
vn 0.942309 0.334743 0.000000
vn 0.942309 0.334743 0.000000
vn 0.000000 1.000000 -0.000001
vn 0.000000 1.000000 -0.000001
vn 0.000000 1.000000 -0.000001
vn 0.000000 1.000000 -0.000001
vn 0.000000 1.000000 0.000000
vn 0.000000 1.000000 0.000000
vn 0.000000 1.000000 0.000000
vn 0.000000 1.000000 0.000000
vn 0.000000 1.000000 0.000000
vn 0.000000 1.000000 0.000000
vn 0.000000 1.000000 0.000000
vn 0.000000 1.000000 0.000000
vn -0.572028 0.820234 0.000000
vn -0.572028 0.820234 0.000000
vn 0.572028 0.820234 0.000000
vn 0.572028 0.820234 0.000000
vn 0.000000 0.820234 0.572028
vn 0.000000 0.820234 0.572028
s off
g pCube12 PillarCornerMid
usemtl initialShadingGroup
f 1/32/1 2/2/2 4/41/3 3/3/4
f 2/42/5 34/56/6 35/57/7 4/4/8
f 32/54/9 33/55/10 1/1/11 3/31/12
s 1
f 3/3/13 4/41/14 8/8/15 7/7/16
s 2
f 31/53/17 32/54/18 3/31/19 7/30/20
s 3
f 4/4/21 35/57/22 36/58/23 8/40/24
s 2
f 30/52/25 31/53/17 7/30/20 5/29/26
s 3
f 8/40/24 36/58/23 37/59/27 6/5/28
s 1
f 7/7/16 8/8/15 6/39/29 5/6/30
s off
f 5/6/31 6/39/32 10/38/33 9/10/34
f 29/51/35 30/52/36 5/29/37 9/28/38
f 6/5/39 37/59/40 38/60/41 10/9/42
s 4
f 9/10/43 10/38/44 22/22/45 21/21/46
s 5
f 28/50/47 29/51/48 9/28/49 21/23/50
s 6
f 10/9/51 38/60/52 39/61/53 22/33/54
s off
f 11/24/55 12/11/56 14/37/57 13/14/58
f 26/48/59 27/49/60 11/12/61 13/27/62
f 12/34/63 40/62/64 41/63/65 14/13/66
f 13/14/67 14/37/68 16/36/69 15/16/70
f 25/47/71 26/48/72 13/27/73 15/26/74
f 14/13/75 41/63/76 42/64/77 16/15/78
f 15/16/79 16/36/80 18/35/81 17/18/82
f 24/46/83 25/47/84 15/26/85 17/25/86
f 16/15/87 42/64/88 43/65/89 18/17/90
f 17/18/91 18/35/92 20/44/93 19/20/94
f 23/45/95 24/46/96 17/25/97 19/43/98
f 18/17/99 43/65/100 44/66/101 20/19/102
s 5
f 27/49/103 28/50/47 21/23/50 11/12/104
s 6
f 22/33/54 39/61/53 40/62/105 12/34/106
s 4
f 21/21/46 22/22/45 12/11/107 11/24/108
g default
v -0.284632 0.722256 0.284632
v -0.284632 3.277744 0.284632
v -0.284632 0.750489 0.250000
v -0.284632 3.249511 0.250000
v -0.257475 0.865964 0.155113
v -0.257475 3.134036 0.155113
v -0.232528 0.865964 0.155113
v -0.232528 3.134036 0.155113
v 0.284632 3.277744 0.284632
v 0.284632 0.722256 0.284632
v 0.284632 0.750489 0.250000
v 0.284632 3.249511 0.250000
v 0.257475 0.865964 0.155113
v 0.257475 3.134036 0.155113
v 0.232528 0.865964 0.155113
v 0.232528 3.134036 0.155113
v -0.250000 0.750489 0.284632
v 0.250000 0.750489 0.284632
v 0.250000 3.249511 0.284632
v -0.250000 3.249511 0.284632
v -0.155112 0.865964 0.257475
v 0.155112 0.865964 0.257475
v 0.155112 3.134036 0.257475
v -0.155112 3.134036 0.257475
v -0.155112 0.865964 0.232528
v 0.155112 0.865964 0.232528
v 0.155112 3.134036 0.232528
v -0.155112 3.134036 0.232528
v -0.284632 3.277744 0.000000
v -0.284632 3.249511 0.000000
v -0.257475 3.134036 0.000000
v -0.232528 3.134036 0.000000
v -0.232528 0.865964 0.000000
v -0.257475 0.865964 0.000000
v -0.284632 0.750489 0.000000
v -0.284632 0.722256 0.000000
v 0.284632 3.277744 0.000000
v 0.284632 3.249511 0.000000
v 0.257475 3.134036 0.000000
v 0.232528 3.134036 0.000000
v 0.232528 0.865964 0.000000
v 0.257475 0.865964 0.000000
v 0.284632 0.750489 0.000000
v 0.284632 0.722256 0.000000
vt 0.133603 0.046245
vt 0.133603 0.696239
vt 0.178231 0.000000
vt 0.168044 0.007476
vt 0.544840 0.744366
vt 0.168044 0.735027
vt 0.139469 0.042351
vt 0.139469 0.700140
vt 0.226235 0.047636
vt 0.226235 0.697537
vt 0.723070 0.000000
vt 0.191799 0.008852
vt 0.181613 0.744366
vt 0.191799 0.736319
vt 0.220372 0.043735
vt 0.220372 0.701434
vt 0.589457 0.046965
vt 0.678446 0.046965
vt 0.678446 0.696872
vt 0.589457 0.696872
vt 0.712883 0.008181
vt 0.555025 0.008181
vt 0.712883 0.735656
vt 0.555025 0.735656
vt 0.684310 0.043066
vt 0.583597 0.043066
vt 0.684310 0.700771
vt 0.583597 0.700771
vt 0.723070 0.744366
vt 0.181613 0.000000
vt 0.544840 0.000000
vt 0.178231 0.744361
vt 0.089116 0.744361
vt 0.089114 0.735027
vt 0.089112 0.700140
vt 0.089109 0.696239
vt 0.089109 0.046245
vt 0.089112 0.042351
vt 0.089114 0.007476
vt 0.089116 0.000000
vt 0.270728 0.744366
vt 0.270729 0.736319
vt 0.270729 0.701434
vt 0.270730 0.697537
vt 0.270730 0.047636
vt 0.270729 0.043735
vt 0.270729 0.008852
vt 0.270728 0.000000
vn -1.000000 0.000000 0.000000
vn -1.000000 0.000000 0.000000
vn -1.000000 0.000000 0.000000
vn -1.000000 0.000000 0.000000
vn -1.000000 0.000000 0.000000
vn -1.000000 0.000000 0.000000
vn -1.000000 0.000000 0.000000
vn -1.000000 0.000000 0.000000
vn -1.000000 0.000000 0.000000
vn -1.000000 0.000000 0.000000
vn -1.000000 0.000000 0.000000
vn -1.000000 0.000000 0.000000
vn -1.000000 0.000004 0.000000
vn -1.000000 0.000004 0.000000
vn -1.000000 0.000004 0.000000
vn -1.000000 0.000004 0.000000
vn -0.973444 0.228927 0.000000
vn -0.973444 0.228927 0.000000
vn -0.973444 0.228927 0.000000
vn -0.973444 0.228927 0.000000
vn -0.961401 0.000000 -0.275153
vn -0.961400 0.000000 -0.275153
vn -0.961401 0.000000 -0.275153
vn -0.961401 0.000000 -0.275153
vn -0.973443 -0.228928 0.000000
vn -0.973443 -0.228928 0.000000
vn -0.973443 -0.228928 0.000000
vn -0.973443 -0.228928 0.000000
vn 0.000000 1.000000 0.000000
vn 0.000000 1.000000 0.000000
vn 0.000000 1.000000 0.000000
vn 0.000000 1.000000 0.000000
vn 0.000000 0.000000 -1.000000
vn 0.000000 0.000000 -1.000000
vn 0.000000 0.000000 -1.000000
vn 0.000000 0.000000 -1.000000
vn 0.000000 -1.000000 0.000000
vn 0.000000 -1.000000 0.000000
vn 0.000000 -1.000000 0.000000
vn 0.000000 -1.000000 0.000000
vn 1.000000 0.000000 0.000000
vn 1.000000 0.000000 0.000000
vn 1.000000 0.000000 0.000000
vn 1.000000 0.000000 0.000000
vn 0.961401 0.000000 -0.275153
vn 0.961401 0.000000 -0.275153
vn 0.961400 0.000000 -0.275153
vn 0.961401 0.000000 -0.275153
vn 0.000000 0.000000 -1.000000
vn 0.000000 0.000000 -1.000000
vn 0.000000 0.000000 -1.000000
vn 0.000000 0.000000 -1.000000
vn 0.000000 0.000000 1.000000
vn 0.000000 0.000000 1.000000
vn 0.000000 0.000000 1.000000
vn 0.000000 0.000000 1.000000
vn 0.000000 0.000000 1.000000
vn 0.000000 0.000000 1.000000
vn 0.000000 0.000000 1.000000
vn 0.000000 0.000000 1.000000
vn 0.000000 0.000000 1.000000
vn 0.000000 0.000000 1.000000
vn 0.000000 0.000000 1.000000
vn 0.000000 0.000000 1.000000
vn 0.000000 0.000000 1.000000
vn 0.000000 0.000000 1.000000
vn 0.000000 0.000000 1.000000
vn 0.000000 0.000000 1.000000
vn 0.000000 0.000000 1.000000
vn 0.000000 0.000000 1.000000
vn 0.000000 0.000000 1.000000
vn 0.000000 0.000000 1.000000
vn 0.000000 0.228929 0.973443
vn 0.000000 0.228929 0.973443
vn 0.000000 0.228929 0.973443
vn 0.000000 0.228929 0.973443
vn -0.275153 0.000000 0.961401
vn -0.275153 0.000000 0.961401
vn -0.275153 0.000000 0.961401
vn -0.275153 0.000000 0.961401
vn 0.000000 -0.228929 0.973443
vn 0.000000 -0.228929 0.973443
vn 0.000000 -0.228929 0.973443
vn 0.000000 -0.228929 0.973443
vn 0.275153 0.000000 0.961401
vn 0.275153 0.000000 0.961401
vn 0.275153 0.000000 0.961401
vn 0.275153 0.000000 0.961401
vn 0.000000 1.000000 0.000000
vn 0.000000 1.000000 0.000000
vn 0.000000 1.000000 0.000000
vn 0.000000 1.000000 0.000000
vn -1.000000 0.000000 0.000000
vn -1.000000 0.000000 0.000000
vn -1.000000 0.000000 0.000000
vn -1.000000 0.000000 0.000000
vn 0.000000 -1.000000 0.000000
vn 0.000000 -1.000000 0.000000
vn 0.000000 -1.000000 0.000000
vn 0.000000 -1.000000 0.000000
vn 1.000000 0.000000 0.000000
vn 1.000000 0.000000 0.000000
vn 1.000000 0.000000 0.000000
vn 1.000000 0.000000 0.000000
vn 1.000000 0.000000 0.000000
vn 1.000000 0.000000 0.000000
vn 1.000000 0.000000 0.000000
vn 1.000000 0.000000 0.000000
vn 0.973444 -0.228927 0.000000
vn 0.973444 -0.228927 0.000000
vn 0.973444 -0.228927 0.000000
vn 0.973444 -0.228927 0.000000
vn 0.000000 -1.000000 0.000000
vn 0.000000 -1.000000 0.000000
vn 0.000000 -1.000000 0.000000
vn 0.000000 -1.000000 0.000000
vn 1.000000 0.000000 0.000000
vn 1.000000 0.000000 0.000000
vn 1.000000 0.000000 0.000000
vn 1.000000 0.000000 0.000000
vn 0.000000 1.000000 0.000000
vn 0.000000 1.000000 0.000000
vn 0.000000 1.000000 0.000000
vn 0.000000 1.000000 0.000000
vn 0.973444 0.228927 0.000000
vn 0.973444 0.228927 0.000000
vn 0.973444 0.228927 0.000000
vn 0.973444 0.228927 0.000000
vn 1.000000 -0.000004 0.000000
vn 1.000000 -0.000004 0.000000
vn 1.000000 -0.000004 0.000000
vn 1.000000 -0.000004 0.000000
s off
g PillarCornerMid pCube18
usemtl initialShadingGroup
f 76/102/109 77/103/110 51/67/111 52/68/112
f 79/105/113 80/106/114 45/69/115 47/70/116
f 45/69/117 46/98/118 48/72/119 47/70/120
f 46/98/121 73/99/122 74/100/123 48/72/124
f 78/104/125 79/105/126 47/70/127 49/73/128
f 47/70/129 48/72/130 50/74/131 49/73/132
f 48/72/133 74/100/134 75/101/135 50/74/136
f 77/103/137 78/104/138 49/73/139 51/67/140
f 49/73/141 50/74/142 52/68/143 51/67/144
f 50/74/145 75/101/146 76/102/147 52/68/148
f 53/79/149 54/96/150 55/78/151 56/80/152
f 56/80/153 55/78/154 57/81/155 58/82/156
f 58/82/157 57/81/158 59/75/159 60/76/160
f 69/83/161 70/84/162 71/85/163 72/86/164
f 45/97/165 54/77/166 62/87/167 61/88/168
f 54/77/169 53/95/170 63/89/171 62/87/172
f 53/95/173 46/71/174 64/90/175 63/89/176
f 46/71/177 45/97/178 61/88/179 64/90/180
f 61/88/181 62/87/182 66/91/183 65/92/184
f 62/87/185 63/89/186 67/93/187 66/91/188
f 63/89/189 64/90/190 68/94/191 67/93/192
f 64/90/193 61/88/194 65/92/195 68/94/196
f 65/92/197 66/91/198 70/84/199 69/83/200
f 66/91/201 67/93/202 71/85/203 70/84/204
f 67/93/205 68/94/206 72/86/207 71/85/208
f 68/94/209 65/92/210 69/83/211 72/86/212
f 82/108/213 81/107/214 53/79/215 56/80/216
f 83/109/217 82/108/218 56/80/219 58/82/220
f 84/110/221 83/109/222 58/82/223 60/76/224
f 59/75/225 85/111/226 84/110/227 60/76/228
f 57/81/229 86/112/230 85/111/231 59/75/232
f 55/78/233 87/113/234 86/112/235 57/81/236
f 54/96/237 88/114/238 87/113/239 55/78/240
g default
v 0.475438 4.000000 0.475438
v -0.475438 4.000000 0.475438
v 0.475438 3.699445 0.475438
v -0.475438 3.699445 0.475438
v 0.475438 3.584569 0.475438
v -0.475438 3.584569 0.475438
v 0.427239 3.642007 0.427239
v -0.427239 3.642007 0.427239
v 0.475438 3.544326 0.475438
v -0.475438 3.544326 0.475438
v 0.406119 3.472246 0.406119
v -0.406119 3.472246 0.406119
v 0.406119 3.435176 0.406119
v -0.406119 3.435176 0.406119
v 0.373235 3.435176 0.373236
v -0.373235 3.435176 0.373236
v 0.317310 3.277744 0.317310
v -0.317310 3.277744 0.317310
v 0.284632 3.277744 0.284632
v -0.284632 3.277744 0.284632
v 0.452237 3.504408 0.452237
v -0.452237 3.504408 0.452237
v -0.475438 4.000000 0.000000
v -0.475438 3.699445 0.000000
v -0.427239 3.642007 0.000000
v -0.475438 3.584569 0.000000
v -0.475438 3.544326 0.000000
v -0.452237 3.504408 0.000000
v -0.406119 3.472246 0.000000
v -0.406119 3.435176 0.000000
v -0.373235 3.435176 0.000000
v -0.317310 3.277744 0.000000
v -0.284632 3.277744 0.000000
v 0.284632 3.277744 0.000000
v 0.317310 3.277744 0.000000
v 0.373235 3.435176 0.000000
v 0.406119 3.435176 0.000000
v 0.406119 3.472246 0.000000
v 0.452237 3.504408 0.000000
v 0.475438 3.544326 0.000000
v 0.475438 3.584569 0.000000
v 0.427239 3.642007 0.000000
v 0.475438 3.699445 0.000000
v 0.475438 4.000000 0.000000
vt 0.274127 0.745663
vt 0.823489 0.744916
vt 0.549858 0.830801
vt 0.726508 0.086608
vt 0.726535 0.129735
vt 0.549771 0.873928
vt 0.563676 0.852392
vt 0.809411 0.852887
vt 0.726542 0.141309
vt 0.549748 0.885501
vt 0.803211 0.915459
vt 0.253380 0.916149
vt 0.746503 0.181404
vt 0.569602 0.925649
vt 0.755965 0.190855
vt 0.579040 0.935125
vt 0.772079 0.238892
vt 0.595027 0.983205
vt 0.781483 0.248284
vt 0.604406 0.992621
vt 0.556394 0.898793
vt 0.816507 0.899316
vt 0.266719 0.900043
vt 0.569624 0.914989
vt 0.227515 0.984192
vt 0.243827 0.936222
vt 0.253329 0.926810
vt 0.273455 0.886798
vt 0.273510 0.875224
vt 0.259751 0.853595
vt 0.273715 0.832097
vt 0.550032 0.744366
vt 0.733223 0.154582
vt 0.746496 0.170743
vt 0.777534 0.983572
vt 0.793714 0.935557
vt 0.803190 0.926119
vt 0.823205 0.886052
vt 0.823229 0.874478
vt 0.740383 0.108163
vt 0.823315 0.831351
vt 0.726453 0.000173
vt 0.218073 0.993544
vt 0.768117 0.992950
vt 0.863182 0.000086
vt 0.863237 0.086522
vt 0.863250 0.108085
vt 0.863264 0.129649
vt 0.863271 0.141222
vt 0.863280 0.154500
vt 0.863290 0.170670
vt 0.863297 0.181330
vt 0.863303 0.190787
vt 0.863333 0.238834
vt 0.863339 0.248232
vt 0.136217 0.993154
vt 0.136262 0.983757
vt 0.136491 0.935710
vt 0.136536 0.926254
vt 0.136587 0.915593
vt 0.136664 0.899424
vt 0.136727 0.886146
vt 0.136782 0.874573
vt 0.136885 0.853009
vt 0.136988 0.831446
vt 0.137400 0.745012
vn 0.000000 0.000000 1.000000
vn 0.000000 0.000000 1.000000
vn 0.000000 0.000000 1.000000
vn 0.000000 0.000000 1.000000
vn -1.000000 0.000000 0.000000
vn -1.000000 0.000000 0.000000
vn -1.000000 0.000000 0.000000
vn -1.000000 0.000000 0.000000
vn 1.000000 -0.000000 0.000000
vn 1.000000 -0.000000 0.000000
vn 1.000000 -0.000000 0.000000
vn 1.000000 -0.000000 0.000000
vn -0.000000 -0.642810 0.766026
vn -0.000000 -0.642810 0.766026
vn 0.000000 0.000000 1.000000
vn 0.000000 0.000000 1.000000
vn 1.000000 0.000000 0.000000
vn 0.766025 -0.642810 0.000000
vn 0.766025 -0.642810 0.000000
vn 1.000000 0.000000 0.000000
vn -0.766025 -0.642810 0.000000
vn -0.766025 -0.642810 0.000000
vn -1.000000 0.000000 0.000000
vn -1.000000 0.000000 0.000000
vn 0.766025 0.642811 0.000000
vn 0.766025 0.642811 0.000000
vn -0.766025 0.642811 0.000000
vn -0.766025 0.642811 0.000000
vn 0.000000 0.642811 0.766025
vn 0.000000 0.642811 0.766025
vn 0.000000 0.000000 1.000000
vn 0.000000 0.000000 1.000000
vn 0.000000 0.000000 1.000000
vn 0.000000 0.000000 1.000000
vn 1.000000 -0.000000 0.000000
vn 1.000000 -0.000000 0.000000
vn 1.000000 -0.000000 0.000000
vn 1.000000 -0.000000 0.000000
vn -1.000000 0.000000 0.000000
vn -1.000000 0.000000 0.000000
vn -1.000000 0.000000 0.000000
vn -1.000000 0.000000 0.000000
vn -0.000000 -0.502505 0.864575
vn -0.000000 -0.502505 0.864575
vn -0.000000 -0.619737 0.784809
vn -0.000000 -0.619737 0.784809
vn 0.726666 -0.686991 0.000000
vn 0.864574 -0.502505 0.000000
vn 0.864574 -0.502505 0.000000
vn 0.784810 -0.619737 0.000000
vn -0.864574 -0.502505 0.000000
vn -0.864574 -0.502505 0.000000
vn -0.726666 -0.686991 0.000000
vn -0.784809 -0.619737 0.000000
vn 0.000000 0.000000 1.000000
vn 0.000000 0.000000 1.000000
vn 0.000000 0.000000 1.000000
vn 0.000000 0.000000 1.000000
vn 1.000000 -0.000000 0.000000
vn 1.000000 -0.000000 0.000000
vn 1.000000 -0.000000 0.000000
vn 1.000000 -0.000000 0.000000
vn -1.000000 0.000000 0.000000
vn -1.000000 0.000000 0.000000
vn -1.000000 0.000000 0.000000
vn -1.000000 0.000000 0.000000
vn -0.000000 -1.000000 -0.000001
vn -0.000000 -1.000000 -0.000001
vn -0.000000 -1.000000 -0.000001
vn -0.000000 -1.000000 -0.000001
vn -0.000000 -1.000000 0.000000
vn -0.000000 -1.000000 0.000000
vn -0.000000 -1.000000 0.000000
vn -0.000000 -1.000000 0.000000
vn -0.000000 -1.000000 0.000000
vn -0.000000 -1.000000 0.000000
vn -0.000000 -1.000000 0.000000
vn -0.000000 -1.000000 0.000000
vn -0.000000 -0.334744 0.942309
vn -0.000000 -0.334744 0.942309
vn -0.000000 -0.334744 0.942309
vn -0.000000 -0.334744 0.942309
vn 0.942309 -0.334743 0.000000
vn 0.942309 -0.334743 0.000000
vn 0.942309 -0.334743 0.000000
vn 0.942309 -0.334743 0.000000
vn -0.942309 -0.334743 0.000000
vn -0.942309 -0.334743 0.000000
vn -0.942309 -0.334743 0.000000
vn -0.942309 -0.334743 0.000000
vn -0.000000 -1.000000 -0.000001
vn -0.000000 -1.000000 -0.000001
vn -0.000000 -1.000000 -0.000001
vn -0.000000 -1.000000 -0.000001
vn -0.000000 -1.000000 0.000000
vn -0.000000 -1.000000 0.000000
vn -0.000000 -1.000000 0.000000
vn -0.000000 -1.000000 0.000000
vn -0.000000 -1.000000 0.000000
vn -0.000000 -1.000000 0.000000
vn -0.000000 -1.000000 0.000000
vn -0.000000 -1.000000 0.000000
vn 0.572028 -0.820234 0.000000
vn 0.572028 -0.820234 0.000000
vn -0.572028 -0.820234 0.000000
vn -0.572028 -0.820234 0.000000
vn -0.000000 -0.820234 0.572028
vn -0.000000 -0.820234 0.572028
s off
g PillarCornerMid pCube19
usemtl initialShadingGroup
f 89/146/241 90/116/242 92/155/243 91/117/244
f 90/156/245 111/159/246 112/160/247 92/118/248
f 131/179/249 132/180/250 89/115/251 91/145/252
s 1
f 91/117/253 92/155/254 96/122/255 95/121/256
s 2
f 130/178/257 131/179/258 91/145/259 95/144/260
s 3
f 92/118/261 112/160/262 113/161/263 96/154/264
s 2
f 129/177/265 130/178/257 95/144/260 93/143/266
s 3
f 96/154/264 113/161/263 114/162/267 94/119/268
s 1
f 95/121/256 96/122/255 94/153/269 93/120/270
s off
f 93/120/271 94/153/272 98/152/273 97/124/274
f 128/176/275 129/177/276 93/143/277 97/142/278
f 94/119/279 114/162/280 115/163/281 98/123/282
s 4
f 97/124/283 98/152/284 110/136/285 109/135/286
s 5
f 127/175/287 128/176/288 97/142/289 109/137/290
s 6
f 98/123/291 115/163/292 116/164/293 110/147/294
s off
f 99/138/295 100/125/296 102/151/297 101/128/298
f 125/173/299 126/174/300 99/126/301 101/141/302
f 100/148/303 117/165/304 118/166/305 102/127/306
f 101/128/307 102/151/308 104/150/309 103/130/310
f 124/172/311 125/173/312 101/141/313 103/140/314
f 102/127/315 118/166/316 119/167/317 104/129/318
f 103/130/319 104/150/320 106/149/321 105/132/322
f 123/171/323 124/172/324 103/140/325 105/139/326
f 104/129/327 119/167/328 120/168/329 106/131/330
f 105/132/331 106/149/332 108/158/333 107/134/334
f 122/170/335 123/171/336 105/139/337 107/157/338
f 106/131/339 120/168/340 121/169/341 108/133/342
s 5
f 126/174/343 127/175/287 109/137/290 99/126/344
s 6
f 110/147/294 116/164/293 117/165/345 100/148/346
s 4
f 109/135/286 110/136/285 100/125/347 99/138/348
