# author: headus 3D tools
#  using: ply2obj v1.12
#   from: uvlayout v2.11.04
# 68 vertices
v 0.0000000 0.0000000 0.0000000
v 4.0000008 0.0000000 0.0000000
v 0.0000000 0.0000000 4.0000008
v 4.0000008 0.0000000 4.0000008
v 0.4166760 0.0000000 0.0000000
v 0.4166760 0.0000000 4.0000008
v 0.5833230 0.0000000 0.0000000
v 0.5833230 0.0000000 4.0000008
v 3.5833232 0.0000000 0.0000000
v 3.5833232 0.0000000 4.0000008
v 3.4166740 0.0000000 0.0000000
v 3.4166740 0.0000000 4.0000008
v 3.4666720 0.0000000 0.0000000
v 3.4666720 0.0000000 4.0000008
v 3.5333212 0.0000000 0.0000000
v 3.5333212 0.0000000 4.0000008
v 0.4666750 0.0000000 0.0000000
v 0.4666750 0.0000000 4.0000008
v 0.5333240 0.0000000 0.0000000
v 0.5333240 0.0000000 4.0000008
v 0.0000000 0.0000000 0.4166760
v 0.4166760 0.0000000 0.4166760
v 0.4666750 0.0000000 0.4666750
v 0.5333240 0.0000000 0.4666750
v 0.5833230 0.0000000 0.4166760
v 3.4166740 0.0000000 0.4166760
v 3.4666720 0.0000000 0.4666750
v 3.5333212 0.0000000 0.4666750
v 3.5833232 0.0000000 0.4166760
v 4.0000008 0.0000000 0.4166760
v 0.0000000 0.0000000 0.4666750
v 4.0000008 0.0000000 0.4666750
v 0.0000000 0.0000000 0.5333240
v 0.4666750 0.0000000 0.5333240
v 0.5333240 0.0000000 0.5333240
v 3.4666720 0.0000000 0.5333240
v 3.5333212 0.0000000 0.5333240
v 4.0000008 0.0000000 0.5333240
v 0.0000000 0.0000000 0.5833230
v 0.4166760 0.0000000 0.5833230
v 0.5833230 0.0000000 0.5833230
v 3.4166740 0.0000000 0.5833230
v 3.5833232 0.0000000 0.5833230
v 4.0000008 0.0000000 0.5833230
v 0.0000000 0.0000000 3.4166740
v 0.4166760 0.0000000 3.4166740
v 0.4666750 0.0000000 3.4666720
v 0.5333240 0.0000000 3.4666720
v 0.5833230 0.0000000 3.4166740
v 3.4166740 0.0000000 3.4166740
v 3.4666720 0.0000000 3.4666720
v 3.5333212 0.0000000 3.4666720
v 3.5833232 0.0000000 3.4166740
v 4.0000008 0.0000000 3.4166740
v 0.0000000 0.0000000 3.4666720
v 4.0000008 0.0000000 3.4666720
v 0.0000000 0.0000000 3.5333212
v 0.4666750 0.0000000 3.5333212
v 0.5333240 0.0000000 3.5333212
v 3.4666720 0.0000000 3.5333212
v 3.5333212 0.0000000 3.5333212
v 4.0000008 0.0000000 3.5333212
v 0.0000000 0.0000000 3.5833232
v 0.4166760 0.0000000 3.5833232
v 0.5833230 0.0000000 3.5833232
v 3.4166740 0.0000000 3.5833232
v 3.5833232 0.0000000 3.5833232
v 4.0000008 0.0000000 3.5833232
# 68 normals
vn 0.000000 -1.000000 0.000000
vn 0.000000 -1.000000 0.000000
vn 0.000000 -1.000000 0.000000
vn 0.000000 -1.000000 0.000000
vn 0.000000 -1.000000 0.000000
vn 0.000000 -1.000000 0.000000
vn 0.000000 -1.000000 0.000000
vn 0.000000 -1.000000 0.000000
vn 0.000000 -1.000000 0.000000
vn 0.000000 -1.000000 0.000000
vn 0.000000 -1.000000 0.000000
vn 0.000000 -1.000000 0.000000
vn 0.000000 -1.000000 0.000000
vn 0.000000 -1.000000 0.000000
vn 0.000000 -1.000000 0.000000
vn 0.000000 -1.000000 0.000000
vn 0.000000 -1.000000 0.000000
vn 0.000000 -1.000000 0.000000
vn 0.000000 -1.000000 0.000000
vn 0.000000 -1.000000 0.000000
vn 0.000000 -1.000000 0.000000
vn 0.000000 -1.000000 0.000000
vn 0.000000 -1.000000 0.000000
vn 0.000000 -1.000000 0.000000
vn 0.000000 -1.000000 0.000000
vn 0.000000 -1.000000 0.000000
vn 0.000000 -1.000000 0.000000
vn 0.000000 -1.000000 0.000000
vn 0.000000 -1.000000 0.000000
vn 0.000000 -1.000000 0.000000
vn 0.000000 -1.000000 0.000000
vn 0.000000 -1.000000 0.000000
vn 0.000000 -1.000000 0.000000
vn 0.000000 -1.000000 0.000000
vn 0.000000 -1.000000 0.000000
vn 0.000000 -1.000000 0.000000
vn 0.000000 -1.000000 0.000000
vn 0.000000 -1.000000 0.000000
vn 0.000000 -1.000000 0.000000
vn 0.000000 -1.000000 0.000000
vn 0.000000 -1.000000 0.000000
vn 0.000000 -1.000000 0.000000
vn 0.000000 -1.000000 0.000000
vn 0.000000 -1.000000 0.000000
vn 0.000000 -1.000000 0.000000
vn 0.000000 -1.000000 0.000000
vn 0.000000 -1.000000 0.000000
vn 0.000000 -1.000000 0.000000
vn 0.000000 -1.000000 0.000000
vn 0.000000 -1.000000 0.000000
vn 0.000000 -1.000000 0.000000
vn 0.000000 -1.000000 0.000000
vn 0.000000 -1.000000 0.000000
vn 0.000000 -1.000000 0.000000
vn 0.000000 -1.000000 0.000000
vn 0.000000 -1.000000 0.000000
vn 0.000000 -1.000000 0.000000
vn 0.000000 -1.000000 0.000000
vn 0.000000 -1.000000 0.000000
vn 0.000000 -1.000000 0.000000
vn 0.000000 -1.000000 0.000000
vn 0.000000 -1.000000 0.000000
vn 0.000000 -1.000000 0.000000
vn 0.000000 -1.000000 0.000000
vn 0.000000 -1.000000 0.000000
vn 0.000000 -1.000000 0.000000
vn 0.000000 -1.000000 0.000000
vn 0.000000 -1.000000 0.000000
# 68 uv coords
vt 0.104170 0.104170
vt 0.116671 0.116671
vt 0.133336 0.116669
vt 0.145836 0.104169
vt 0.854172 0.104169
vt 0.866673 0.116671
vt 0.883341 0.116669
vt 0.895843 0.104169
vt 0.116669 0.133336
vt 0.133333 0.133333
vt 0.866675 0.133334
vt 0.883344 0.133332
vt 0.104169 0.145836
vt 0.145835 0.145835
vt 0.854173 0.145834
vt 0.895847 0.145832
vt 0.104169 0.854172
vt 0.116671 0.866673
vt 0.133334 0.866675
vt 0.145834 0.854173
vt 0.854172 0.854172
vt 0.866669 0.866669
vt 0.883328 0.866668
vt 0.895827 0.854169
vt 0.116669 0.883341
vt 0.133332 0.883344
vt 0.866668 0.883328
vt 0.883331 0.883331
vt 0.104169 0.895843
vt 0.145832 0.895847
vt 0.854169 0.895827
vt 0.895833 0.895833
vt 0.854174 0.999999
vt 0.145831 1.000015
vt 0.133327 1.000014
vt 0.866676 0.999999
vt 0.116661 1.000013
vt 0.000001 0.883336
vt 0.000001 0.866678
vt 0.883334 1.000000
vt 0.999999 0.866676
vt 1.000000 0.883334
vt 0.000000 0.854176
vt 0.000000 0.145831
vt 0.000001 0.133327
vt 0.000002 0.116665
vt 0.116665 0.000002
vt 0.133327 0.000001
vt 0.145831 0.000000
vt 0.854176 0.000000
vt 0.866678 0.000001
vt 0.883336 0.000001
vt 1.000013 0.116661
vt 1.000014 0.133327
vt 0.999999 0.854174
vt 1.000015 0.145831
vt 0.104157 1.000013
vt 0.000001 0.895832
vt 0.895831 1.000001
vt 1.000001 0.895831
vt 0.000001 0.104168
vt 0.104168 0.000001
vt 0.895832 0.000001
vt 1.000013 0.104157
vt -0.000014 0.999999
vt 1.000001 1.000001
vt 0.000000 0.000000
vt 0.999999 -0.000014
# 49 polygons
usemtl initialShadingGroup
s 1
g Roof
f 63/58/1 64/29/2 6/57/3 3/65/4
f 6/57/3 64/29/2 58/25/5 18/37/6
f 8/34/7 65/30/8 66/31/9 12/33/10
f 10/59/11 67/32/12 68/60/13 4/66/14
f 12/33/10 66/31/9 60/27/15 14/36/16
f 14/36/16 60/27/15 61/28/17 16/40/18
f 16/40/18 61/28/17 67/32/12 10/59/11
f 18/37/6 58/25/5 59/26/19 20/35/20
f 20/35/20 59/26/19 65/30/8 8/34/7
f 1/67/21 5/62/22 22/1/23 21/61/24
f 23/2/25 22/1/23 5/62/22 17/47/26
f 24/3/27 23/2/25 17/47/26 19/48/28
f 25/4/29 24/3/27 19/48/28 7/49/30
f 26/5/31 25/4/29 7/49/30 11/50/32
f 27/6/33 26/5/31 11/50/32 13/51/34
f 28/7/35 27/6/33 13/51/34 15/52/36
f 29/8/37 28/7/35 15/52/36 9/63/38
f 30/64/39 29/8/37 9/63/38 2/68/40
f 21/61/24 22/1/23 23/2/25 31/46/41
f 27/6/33 24/3/27 25/4/29 26/5/31
f 32/53/42 28/7/35 29/8/37 30/64/39
f 31/46/41 23/2/25 34/9/43 33/45/44
f 35/10/45 34/9/43 23/2/25 24/3/27
f 36/11/46 35/10/45 24/3/27 27/6/33
f 37/12/47 36/11/46 27/6/33 28/7/35
f 38/54/48 37/12/47 28/7/35 32/53/42
f 33/45/44 34/9/43 40/13/49 39/44/50
f 42/15/51 41/14/52 35/10/45 36/11/46
f 44/56/53 43/16/54 37/12/47 38/54/48
f 39/44/50 40/13/49 46/17/55 45/43/56
f 47/18/57 46/17/55 40/13/49 34/9/43
f 48/19/58 47/18/57 34/9/43 35/10/45
f 49/20/59 48/19/58 35/10/45 41/14/52
f 50/21/60 49/20/59 41/14/52 42/15/51
f 51/22/61 50/21/60 42/15/51 36/11/46
f 52/23/62 51/22/61 36/11/46 37/12/47
f 53/24/63 52/23/62 37/12/47 43/16/54
f 54/55/64 53/24/63 43/16/54 44/56/53
f 45/43/56 46/17/55 47/18/57 55/39/65
f 51/22/61 48/19/58 49/20/59 50/21/60
f 56/41/66 52/23/62 53/24/63 54/55/64
f 55/39/65 47/18/57 58/25/5 57/38/67
f 59/26/19 58/25/5 47/18/57 48/19/58
f 60/27/15 59/26/19 48/19/58 51/22/61
f 61/28/17 60/27/15 51/22/61 52/23/62
f 62/42/68 61/28/17 52/23/62 56/41/66
f 57/38/67 58/25/5 64/29/2 63/58/1
f 66/31/9 65/30/8 59/26/19 60/27/15
f 68/60/13 67/32/12 61/28/17 62/42/68
# h3dt: 68 68 68 49
