# author: headus 3D tools
#  using: ply2obj v1.12
#   from: uvlayout v2.11.04
# 12 vertices
v 4.0000000 0.0000000 0.0000000
v 4.0000000 4.0000012 0.0000000
v -0.0000012 0.0000000 0.0000000
v -0.0000012 4.0000012 0.0000000
v 3.0550001 0.0000000 0.0000000
v 3.0550001 4.0000012 0.0000000
v 0.9449998 4.0000012 0.0000000
v 0.9449998 0.0000000 0.0000000
v 4.0000000 3.0550002 0.0000000
v 3.0550001 3.0550002 0.0000000
v 0.9449998 3.0550002 0.0000000
v -0.0000012 3.0550002 0.0000000
# 12 normals
vn 0.000000 0.000000 1.000000
vn 0.000000 0.000000 1.000000
vn 0.000000 0.000000 1.000000
vn 0.000000 0.000000 1.000000
vn 0.000000 0.000000 1.000000
vn 0.000000 0.000000 1.000000
vn 0.000000 0.000000 1.000000
vn 0.000000 0.000000 1.000000
vn 0.000000 0.000000 1.000000
vn 0.000000 0.000000 1.000000
vn 0.000000 0.000000 1.000000
vn 0.000000 0.000000 1.000000
# 12 uv coords
vt 0.236614 0.002945
vt 0.238928 0.758537
vt 0.005183 0.759061
vt 0.002915 0.003654
vt 0.239122 0.992283
vt 0.005519 0.992666
vt 0.760921 0.758516
vt 0.760733 0.992267
vt 0.994666 0.759051
vt 0.994334 0.992650
vt 0.997019 0.003651
vt 0.763321 0.002915
# 5 polygons
usemtl initialShadingGroup
s 1
g WallDoor1
f 1/11/1 9/9/2 10/7/3 5/12/4
f 8/1/5 11/2/6 12/3/7 3/4/8
f 10/7/3 9/9/2 2/10/9 6/8/10
f 11/2/6 10/7/3 6/8/10 7/5/11
f 12/3/7 11/2/6 7/5/11 4/6/12
# h3dt: 12 12 12 5
