# This file uses centimeters as units for non-parametric coordinates.

mtllib WallPanel.mtl
g default
v 4.000000 0.000000 0.080000
v 4.000000 2.000000 0.080000
v -0.000001 0.000000 0.080000
v -0.000001 2.000000 0.080000
v 4.000000 0.270330 0.080000
v -0.000001 0.270330 0.080000
v -0.000001 0.421986 0.036235
v 4.000000 0.421986 0.036235
v -0.000001 1.911198 0.036235
v 4.000000 1.911198 0.036235
v -0.000001 1.961153 0.080000
v 4.000000 1.961153 0.080000
v 3.000000 2.000000 0.080000
v 3.000000 1.961153 0.080000
v 3.000000 1.911198 0.036235
v 3.000000 0.421986 0.036235
v 3.000000 0.270330 0.080000
v 3.000000 0.000000 0.080000
v 2.000000 0.000000 0.080000
v 2.000000 0.270330 0.080000
v 2.000000 0.421986 0.036235
v 2.000000 1.911198 0.036235
v 2.000000 1.961153 0.080000
v 2.000000 2.000000 0.080000
v 1.000000 0.000000 0.080000
v 1.000000 0.270330 0.080000
v 1.000000 0.421986 0.036235
v 1.000000 1.911198 0.036235
v 1.000000 1.961153 0.080000
v 1.000000 2.000000 0.080000
v 3.050000 1.861198 0.036235
v 3.050000 0.471986 0.036235
v 3.950000 0.471986 0.036235
v 3.950000 1.861198 0.036235
v 0.049999 0.471986 0.036235
v 0.950000 0.471986 0.036235
v 0.950000 1.861198 0.036235
v 0.049999 1.861198 0.036235
v 2.050000 0.471986 0.036235
v 2.050000 1.861198 0.036235
v 2.950000 0.471986 0.036235
v 2.950000 1.861198 0.036235
v 1.050000 0.471986 0.036235
v 1.050000 1.861198 0.036235
v 1.950000 0.471986 0.036235
v 1.950000 1.861198 0.036235
v 4.000000 2.000000 0.000000
v 3.000000 2.000000 0.000000
v 2.000000 2.000000 0.000000
v 1.000000 2.000000 0.000000
v -0.000001 2.000000 0.000000
v 3.100000 1.811198 0.036235
v 3.100000 0.521986 0.036235
v 3.900000 0.521986 0.036235
v 3.900000 1.811198 0.036235
v 0.099999 0.521986 0.036235
v 0.900000 0.521986 0.036235
v 0.900000 1.811198 0.036235
v 0.099999 1.811198 0.036235
v 2.100000 0.521986 0.036235
v 2.100000 1.811198 0.036235
v 2.900000 0.521986 0.036235
v 2.900000 1.811198 0.036235
v 1.100000 0.521986 0.036235
v 1.100000 1.811198 0.036235
v 1.900000 0.521986 0.036235
v 1.900000 1.811198 0.036235
v 3.300000 1.611198 0.036235
v 3.300000 0.721986 0.036235
v 3.700000 0.721986 0.036235
v 3.700000 1.611198 0.036235
v 0.299999 0.721986 0.036235
v 0.700000 0.721986 0.036235
v 0.700000 1.611198 0.036235
v 0.299999 1.611198 0.036235
v 2.300000 0.721986 0.036235
v 2.300000 1.611198 0.036235
v 2.700000 0.721986 0.036235
v 2.700000 1.611198 0.036235
v 1.300000 0.721986 0.036235
v 1.300000 1.611198 0.036235
v 1.700000 0.721986 0.036235
v 1.700000 1.611198 0.036235
v 3.350000 1.561198 0.036235
v 3.350000 0.771986 0.036235
v 3.650000 0.771986 0.036235
v 3.650000 1.561198 0.036235
v 0.349999 0.771986 0.036235
v 0.650000 0.771986 0.036235
v 0.650000 1.561198 0.036235
v 0.349999 1.561198 0.036235
v 2.350000 0.771986 0.036235
v 2.350000 1.561198 0.036235
v 2.650000 0.771986 0.036235
v 2.650000 1.561198 0.036235
v 1.350000 0.771986 0.036235
v 1.350000 1.561198 0.036235
v 1.650000 0.771986 0.036235
v 1.650000 1.561198 0.036235
vt 0.002967 0.524241
vt 0.002920 0.457229
vt 0.250758 0.457061
vt 0.250791 0.524053
vt 0.250756 0.022799
vt 0.250757 0.032416
vt 0.002920 0.032529
vt 0.002920 0.022881
vt 0.250746 0.417951
vt 0.002907 0.418081
vt 0.164030 0.135670
vt 0.163987 0.331265
vt 0.089638 0.331273
vt 0.089678 0.135678
vt 0.250762 0.048867
vt 0.002925 0.049000
vt 0.994268 0.032534
vt 0.746431 0.032411
vt 0.746432 0.022782
vt 0.994269 0.022885
vt 0.994261 0.049016
vt 0.746423 0.048870
vt 0.907562 0.331286
vt 0.833211 0.331283
vt 0.833150 0.135688
vt 0.907501 0.135690
vt 0.994272 0.457251
vt 0.746435 0.457068
vt 0.746450 0.417952
vt 0.994290 0.418111
vt 0.746399 0.524063
vt 0.994224 0.524257
vt 0.498597 0.456975
vt 0.498596 0.523968
vt 0.498598 0.417865
vt 0.411876 0.135571
vt 0.411820 0.331167
vt 0.337468 0.331161
vt 0.337526 0.135565
vt 0.498594 0.032343
vt 0.498594 0.048795
vt 0.498595 0.022728
vt 0.659672 0.135574
vt 0.659722 0.331170
vt 0.585369 0.331175
vt 0.585324 0.135579
vt 0.238352 0.405571
vt 0.238371 0.061269
vt 0.015298 0.405673
vt 0.015319 0.061381
vt 0.758848 0.405574
vt 0.981901 0.405699
vt 0.758812 0.061276
vt 0.981864 0.061400
vt 0.486188 0.405482
vt 0.486216 0.061191
vt 0.263133 0.405551
vt 0.263164 0.061249
vt 0.734061 0.405556
vt 0.734028 0.061254
vt 0.511004 0.405484
vt 0.510977 0.061194
vt 0.002915 0.003043
vt 0.250753 0.002976
vt 0.498594 0.002907
vt 0.746437 0.002953
vt 0.994276 0.003053
vt 0.225954 0.393194
vt 0.225983 0.073679
vt 0.027686 0.393264
vt 0.027714 0.073752
vt 0.771244 0.393204
vt 0.969512 0.393285
vt 0.771199 0.073691
vt 0.969470 0.073770
vt 0.473787 0.393104
vt 0.473832 0.073597
vt 0.275517 0.393144
vt 0.275563 0.073624
vt 0.721674 0.393153
vt 0.721632 0.073631
vt 0.523402 0.393107
vt 0.523366 0.073602
vt 0.176381 0.343645
vt 0.176421 0.123266
vt 0.077247 0.343677
vt 0.077286 0.123299
vt 0.820816 0.343660
vt 0.919950 0.343693
vt 0.820761 0.123282
vt 0.919897 0.123313
vt 0.424216 0.343549
vt 0.424265 0.123172
vt 0.325079 0.343562
vt 0.325131 0.123181
vt 0.672112 0.343572
vt 0.672065 0.123190
vt 0.572973 0.343557
vt 0.572935 0.123180
vn 0.000000 0.000000 1.000000
vn 0.000000 0.000000 1.000000
vn 0.000000 0.000000 1.000000
vn 0.000000 0.000000 1.000000
vn 0.000000 0.000000 1.000000
vn 0.000000 0.000000 1.000000
vn 0.000000 0.000000 1.000000
vn 0.000000 0.000000 1.000000
vn 0.000000 0.277266 0.960793
vn 0.000000 0.277266 0.960793
vn 0.000000 0.277266 0.960793
vn 0.000000 0.277266 0.960793
vn 0.000000 0.000000 1.000000
vn 0.000000 0.000000 1.000000
vn 0.000000 0.000000 1.000000
vn 0.000000 0.000000 1.000000
vn 0.000000 -0.658969 0.752170
vn 0.000000 -0.658969 0.752170
vn 0.000000 -0.658969 0.752170
vn 0.000000 -0.658969 0.752170
vn 0.000000 0.000000 1.000000
vn 0.000000 0.000000 1.000000
vn 0.000000 0.000000 1.000000
vn 0.000000 0.000000 1.000000
vn 0.000000 -0.658969 0.752171
vn 0.000000 -0.658969 0.752171
vn 0.000000 -0.658969 0.752171
vn 0.000000 -0.658969 0.752171
vn 0.000000 0.000000 1.000000
vn 0.000000 0.000000 1.000000
vn 0.000000 0.000000 1.000000
vn 0.000000 0.000000 1.000000
vn 0.000000 0.277266 0.960793
vn 0.000000 0.277266 0.960793
vn 0.000000 0.277266 0.960793
vn 0.000000 0.277266 0.960793
vn 0.000000 0.000000 1.000000
vn 0.000000 0.000000 1.000000
vn 0.000000 0.000000 1.000000
vn 0.000000 0.000000 1.000000
vn 0.000000 0.000000 1.000000
vn 0.000000 0.000000 1.000000
vn 0.000000 0.000000 1.000000
vn 0.000000 0.000000 1.000000
vn 0.000000 0.277266 0.960793
vn 0.000000 0.277266 0.960793
vn 0.000000 0.277266 0.960793
vn 0.000000 0.277266 0.960793
vn 0.000000 0.000000 1.000000
vn 0.000000 0.000000 1.000000
vn 0.000000 0.000000 1.000000
vn 0.000000 0.000000 1.000000
vn 0.000000 -0.658969 0.752170
vn 0.000000 -0.658969 0.752170
vn 0.000000 -0.658969 0.752170
vn 0.000000 -0.658969 0.752170
vn 0.000000 0.000000 1.000000
vn 0.000000 0.000000 1.000000
vn 0.000000 0.000000 1.000000
vn 0.000000 0.000000 1.000000
vn 0.000000 0.000000 1.000000
vn 0.000000 0.000000 1.000000
vn 0.000000 0.000000 1.000000
vn 0.000000 0.000000 1.000000
vn 0.000000 0.277266 0.960793
vn 0.000000 0.277266 0.960793
vn 0.000000 0.277266 0.960793
vn 0.000000 0.277266 0.960793
vn 0.000000 0.000000 1.000000
vn 0.000000 0.000000 1.000000
vn 0.000000 0.000000 1.000000
vn 0.000000 0.000000 1.000000
vn 0.000000 -0.658969 0.752170
vn 0.000000 -0.658969 0.752170
vn 0.000000 -0.658969 0.752170
vn 0.000000 -0.658969 0.752170
vn 0.000000 0.000000 1.000000
vn 0.000000 0.000000 1.000000
vn 0.000000 0.000000 1.000000
vn 0.000000 0.000000 1.000000
vn 0.000000 0.000000 1.000000
vn 0.000000 0.000000 1.000000
vn 0.000000 0.000000 1.000000
vn 0.000000 0.000000 1.000000
vn 0.000000 0.000000 1.000000
vn 0.000000 0.000000 1.000000
vn 0.000000 0.000000 1.000000
vn 0.000000 0.000000 1.000000
vn 0.000000 0.000000 1.000000
vn 0.000000 0.000000 1.000000
vn 0.000000 0.000000 1.000000
vn 0.000000 0.000000 1.000000
vn 0.000000 0.000000 1.000000
vn 0.000000 0.000000 1.000000
vn 0.000000 0.000000 1.000000
vn 0.000000 0.000000 1.000000
vn 0.000000 0.000000 1.000000
vn 0.000000 0.000000 1.000000
vn 0.000000 0.000000 1.000000
vn 0.000000 0.000000 1.000000
vn 0.000000 0.000000 1.000000
vn 0.000000 0.000000 1.000000
vn 0.000000 0.000000 1.000000
vn 0.000000 0.000000 1.000000
vn 0.000000 0.000000 1.000000
vn 0.000000 0.000000 1.000000
vn 0.000000 0.000000 1.000000
vn 0.000000 0.000000 1.000000
vn 0.000000 0.000000 1.000000
vn 0.000000 0.000000 1.000000
vn 0.000000 0.000000 1.000000
vn 0.000000 0.000000 1.000000
vn 0.000000 0.000000 1.000000
vn 0.000000 0.000000 1.000000
vn 0.000000 0.000000 1.000000
vn 0.000000 0.000000 1.000000
vn 0.000000 0.000000 1.000000
vn 0.000000 0.000000 1.000000
vn 0.000000 0.000000 1.000000
vn 0.000000 0.000000 1.000000
vn 0.000000 0.000000 1.000000
vn 0.000000 0.000000 1.000000
vn 0.000000 0.000000 1.000000
vn 0.000000 0.000000 1.000000
vn 0.000000 0.000000 1.000000
vn 0.000000 0.000000 1.000000
vn 0.000000 0.000000 1.000000
vn 0.000000 0.000000 1.000000
vn 0.000000 0.000000 1.000000
vn 0.000000 0.000000 1.000000
vn 0.000000 0.000000 1.000000
vn 0.000000 0.000000 1.000000
vn 0.000000 0.000000 1.000000
vn 0.000000 0.000000 1.000000
vn 0.000000 0.000000 1.000000
vn 0.000000 0.000000 1.000000
vn 0.000000 0.000000 1.000000
vn 0.000000 0.000000 1.000000
vn 0.000000 0.000000 1.000000
vn 0.000000 0.000000 1.000000
vn 0.000000 0.000000 1.000000
vn 0.000000 0.000000 1.000000
vn 0.000000 0.000000 1.000000
vn 0.000000 0.000000 1.000000
vn 0.000000 1.000000 0.000000
vn 0.000000 1.000000 0.000000
vn 0.000000 1.000000 0.000000
vn 0.000000 1.000000 0.000000
vn 0.000000 1.000000 0.000000
vn 0.000000 1.000000 0.000000
vn 0.000000 1.000000 0.000000
vn 0.000000 1.000000 0.000000
vn 0.000000 1.000000 0.000000
vn 0.000000 1.000000 0.000000
vn 0.000000 1.000000 0.000000
vn 0.000000 1.000000 0.000000
vn 0.000000 1.000000 0.000000
vn 0.000000 1.000000 0.000000
vn 0.000000 1.000000 0.000000
vn 0.000000 1.000000 0.000000
vn -0.000000 0.000000 1.000000
vn -0.000000 0.000000 1.000000
vn -0.000000 0.000000 1.000000
vn -0.000000 0.000000 1.000000
vn 0.000000 0.000000 1.000000
vn 0.000000 0.000000 1.000000
vn 0.000000 0.000000 1.000000
vn 0.000000 0.000000 1.000000
vn 0.000000 0.000000 1.000000
vn 0.000000 0.000000 1.000000
vn 0.000000 0.000000 1.000000
vn 0.000000 0.000000 1.000000
vn 0.000000 0.000000 1.000000
vn 0.000000 0.000000 1.000000
vn 0.000000 0.000000 1.000000
vn 0.000000 0.000000 1.000000
vn 0.000000 0.000000 1.000000
vn 0.000000 0.000000 1.000000
vn 0.000000 0.000000 1.000000
vn 0.000000 0.000000 1.000000
vn 0.000000 0.000000 1.000000
vn 0.000000 0.000000 1.000000
vn 0.000000 0.000000 1.000000
vn 0.000000 0.000000 1.000000
vn 0.000000 0.000000 1.000000
vn 0.000000 0.000000 1.000000
vn 0.000000 0.000000 1.000000
vn 0.000000 0.000000 1.000000
vn -0.000000 0.000000 1.000000
vn -0.000000 0.000000 1.000000
vn -0.000000 0.000000 1.000000
vn -0.000000 0.000000 1.000000
vn -0.000000 0.000000 1.000000
vn -0.000000 0.000000 1.000000
vn -0.000000 0.000000 1.000000
vn -0.000000 0.000000 1.000000
vn 0.000000 0.000000 1.000000
vn 0.000000 0.000000 1.000000
vn 0.000000 0.000000 1.000000
vn 0.000000 0.000000 1.000000
vn 0.000000 0.000000 1.000000
vn 0.000000 0.000000 1.000000
vn 0.000000 0.000000 1.000000
vn 0.000000 0.000000 1.000000
vn 0.000000 0.000000 1.000000
vn 0.000000 0.000000 1.000000
vn 0.000000 0.000000 1.000000
vn 0.000000 0.000000 1.000000
vn -0.000000 0.000000 1.000000
vn -0.000000 0.000000 1.000000
vn -0.000000 0.000000 1.000000
vn -0.000000 0.000000 1.000000
vn 0.000000 0.000000 1.000000
vn 0.000000 0.000000 1.000000
vn 0.000000 0.000000 1.000000
vn 0.000000 0.000000 1.000000
vn 0.000000 0.000000 1.000000
vn 0.000000 0.000000 1.000000
vn 0.000000 0.000000 1.000000
vn 0.000000 0.000000 1.000000
vn 0.000000 0.000000 1.000000
vn 0.000000 0.000000 1.000000
vn 0.000000 0.000000 1.000000
vn 0.000000 0.000000 1.000000
vn 0.000000 0.000000 1.000000
vn 0.000000 0.000000 1.000000
vn 0.000000 0.000000 1.000000
vn 0.000000 0.000000 1.000000
vn 0.000000 0.000000 1.000000
vn 0.000000 0.000000 1.000000
vn 0.000000 0.000000 1.000000
vn 0.000000 0.000000 1.000000
vn 0.000000 0.000000 1.000000
vn 0.000000 0.000000 1.000000
vn 0.000000 0.000000 1.000000
vn 0.000000 0.000000 1.000000
vn 0.000000 0.000000 1.000000
vn 0.000000 0.000000 1.000000
vn 0.000000 0.000000 1.000000
vn 0.000000 0.000000 1.000000
vn 0.000000 0.000000 1.000000
vn 0.000000 0.000000 1.000000
vn 0.000000 0.000000 1.000000
vn 0.000000 0.000000 1.000000
vn 0.000000 0.000000 1.000000
vn 0.000000 0.000000 1.000000
vn 0.000000 0.000000 1.000000
vn 0.000000 0.000000 1.000000
vn 0.000000 0.000000 1.000000
vn 0.000000 0.000000 1.000000
vn 0.000000 0.000000 1.000000
vn 0.000000 0.000000 1.000000
vn 0.000000 0.000000 1.000000
vn 0.000000 0.000000 1.000000
vn 0.000000 0.000000 1.000000
vn 0.000000 0.000000 1.000000
vn 0.000000 0.000000 1.000000
vn 0.000000 0.000000 1.000000
vn 0.000000 0.000000 1.000000
vn 0.000000 0.000000 1.000000
vn 0.000000 0.000000 1.000000
vn 0.000000 0.000000 1.000000
vn 0.000000 0.000000 1.000000
vn 0.000000 0.000000 1.000000
vn 0.000000 0.000000 1.000000
vn 0.000000 0.000000 1.000000
vn 0.000000 0.000000 1.000000
vn 0.000000 0.000000 1.000000
vn 0.000000 0.000000 1.000000
vn 0.000000 0.000000 1.000000
vn 0.000000 0.000000 1.000000
vn 0.000000 0.000000 1.000000
vn 0.000000 0.000000 1.000000
vn 0.000000 0.000000 1.000000
vn 0.000000 0.000000 1.000000
vn 0.000000 0.000000 1.000000
vn 0.000000 0.000000 1.000000
vn 0.000000 0.000000 1.000000
vn 0.000000 0.000000 1.000000
vn 0.000000 0.000000 1.000000
vn 0.000000 0.000000 1.000000
vn 0.000000 0.000000 1.000000
vn 0.000000 0.000000 1.000000
vn 0.000000 0.000000 1.000000
vn 0.000000 0.000000 1.000000
vn 0.000000 0.000000 1.000000
vn 0.000000 0.000000 1.000000
vn 0.000000 0.000000 1.000000
vn -0.000000 0.000000 1.000000
vn -0.000000 0.000000 1.000000
vn -0.000000 0.000000 1.000000
vn -0.000000 0.000000 1.000000
vn 0.000000 0.000000 1.000000
vn 0.000000 0.000000 1.000000
vn 0.000000 0.000000 1.000000
vn 0.000000 0.000000 1.000000
vn -0.000000 0.000000 1.000000
vn -0.000000 0.000000 1.000000
vn -0.000000 0.000000 1.000000
vn -0.000000 0.000000 1.000000
vn 0.000000 0.000000 1.000000
vn 0.000000 0.000000 1.000000
vn 0.000000 0.000000 1.000000
vn 0.000000 0.000000 1.000000
vn 0.000000 0.000000 1.000000
vn 0.000000 0.000000 1.000000
vn 0.000000 0.000000 1.000000
vn 0.000000 0.000000 1.000000
vn -0.000000 0.000000 1.000000
vn -0.000000 0.000000 1.000000
vn -0.000000 0.000000 1.000000
vn -0.000000 0.000000 1.000000
vn 0.000000 0.000000 1.000000
vn 0.000000 0.000000 1.000000
vn 0.000000 0.000000 1.000000
vn 0.000000 0.000000 1.000000
vn -0.000000 0.000000 1.000000
vn -0.000000 0.000000 1.000000
vn -0.000000 0.000000 1.000000
vn -0.000000 0.000000 1.000000
vn -0.000000 0.000000 1.000000
vn -0.000000 0.000000 1.000000
vn -0.000000 0.000000 1.000000
vn -0.000000 0.000000 1.000000
vn 0.000000 0.000000 1.000000
vn 0.000000 0.000000 1.000000
vn 0.000000 0.000000 1.000000
vn 0.000000 0.000000 1.000000
vn -0.000000 0.000000 1.000000
vn -0.000000 0.000000 1.000000
vn -0.000000 0.000000 1.000000
vn -0.000000 0.000000 1.000000
vn 0.000000 0.000000 1.000000
vn 0.000000 0.000000 1.000000
vn 0.000000 0.000000 1.000000
vn 0.000000 0.000000 1.000000
vn -0.000000 0.000000 1.000000
vn -0.000000 0.000000 1.000000
vn -0.000000 0.000000 1.000000
vn -0.000000 0.000000 1.000000
vn 0.000000 0.000000 1.000000
vn 0.000000 0.000000 1.000000
vn 0.000000 0.000000 1.000000
vn 0.000000 0.000000 1.000000
vn -0.000000 0.000000 1.000000
vn -0.000000 0.000000 1.000000
vn -0.000000 0.000000 1.000000
vn -0.000000 0.000000 1.000000
vn 0.000000 0.000000 1.000000
vn 0.000000 0.000000 1.000000
vn 0.000000 0.000000 1.000000
vn 0.000000 0.000000 1.000000
s off
g WallPanel_WallPanel
usemtl initialShadingGroup
f 1/1/1 5/2/2 17/3/3 18/4/4
f 13/5/5 14/6/6 12/7/7 2/8/8
f 16/9/9 17/3/10 5/2/11 8/10/12
f 84/11/13 85/12/14 86/13/15 87/14/16
f 14/6/17 15/15/18 10/16/19 12/7/20
f 11/17/21 29/18/22 30/19/23 4/20/24
f 9/21/25 28/22/26 29/18/27 11/17/28
f 88/23/29 89/24/30 90/25/31 91/26/32
f 6/27/33 26/28/34 27/29/35 7/30/36
f 25/31/37 26/28/38 6/27/39 3/32/40
f 18/4/41 17/3/42 20/33/43 19/34/44
f 21/35/45 20/33/46 17/3/47 16/9/48
f 93/36/49 92/37/50 94/38/51 95/39/52
f 23/40/53 22/41/54 15/15/55 14/6/56
f 24/42/57 23/40/58 14/6/59 13/5/60
f 19/34/61 20/33/62 26/28/63 25/31/64
f 27/29/65 26/28/66 20/33/67 21/35/68
f 97/43/69 96/44/70 98/45/71 99/46/72
f 29/18/73 28/22/74 22/41/75 23/40/76
f 30/19/77 29/18/78 23/40/79 24/42/80
f 15/15/81 16/9/82 32/47/83 31/48/84
f 16/9/85 8/10/86 33/49/87 32/47/88
f 8/10/89 10/16/90 34/50/91 33/49/92
f 10/16/93 15/15/94 31/48/95 34/50/96
f 7/30/97 27/29/98 36/51/99 35/52/100
f 27/29/101 28/22/102 37/53/103 36/51/104
f 28/22/105 9/21/106 38/54/107 37/53/108
f 9/21/109 7/30/110 35/52/111 38/54/112
f 22/41/113 21/35/114 39/55/115 40/56/116
f 21/35/117 16/9/118 41/57/119 39/55/120
f 16/9/121 15/15/122 42/58/123 41/57/124
f 15/15/125 22/41/126 40/56/127 42/58/128
f 28/22/129 27/29/130 43/59/131 44/60/132
f 27/29/133 21/35/134 45/61/135 43/59/136
f 21/35/137 22/41/138 46/62/139 45/61/140
f 22/41/141 28/22/142 44/60/143 46/62/144
f 13/5/145 2/8/146 47/63/147 48/64/148
f 24/42/149 13/5/150 48/64/151 49/65/152
f 30/19/153 24/42/154 49/65/155 50/66/156
f 4/20/157 30/19/158 50/66/159 51/67/160
f 31/48/161 32/47/162 53/68/163 52/69/164
f 32/47/165 33/49/166 54/70/167 53/68/168
f 33/49/169 34/50/170 55/71/171 54/70/172
f 34/50/173 31/48/174 52/69/175 55/71/176
f 35/52/177 36/51/178 57/72/179 56/73/180
f 36/51/181 37/53/182 58/74/183 57/72/184
f 37/53/185 38/54/186 59/75/187 58/74/188
f 38/54/189 35/52/190 56/73/191 59/75/192
f 40/56/193 39/55/194 60/76/195 61/77/196
f 39/55/197 41/57/198 62/78/199 60/76/200
f 41/57/201 42/58/202 63/79/203 62/78/204
f 42/58/205 40/56/206 61/77/207 63/79/208
f 44/60/209 43/59/210 64/80/211 65/81/212
f 43/59/213 45/61/214 66/82/215 64/80/216
f 45/61/217 46/62/218 67/83/219 66/82/220
f 46/62/221 44/60/222 65/81/223 67/83/224
f 52/69/225 53/68/226 69/84/227 68/85/228
f 53/68/229 54/70/230 70/86/231 69/84/232
f 54/70/233 55/71/234 71/87/235 70/86/236
f 55/71/237 52/69/238 68/85/239 71/87/240
f 56/73/241 57/72/242 73/88/243 72/89/244
f 57/72/245 58/74/246 74/90/247 73/88/248
f 58/74/249 59/75/250 75/91/251 74/90/252
f 59/75/253 56/73/254 72/89/255 75/91/256
f 61/77/257 60/76/258 76/92/259 77/93/260
f 60/76/261 62/78/262 78/94/263 76/92/264
f 62/78/265 63/79/266 79/95/267 78/94/268
f 63/79/269 61/77/270 77/93/271 79/95/272
f 65/81/273 64/80/274 80/96/275 81/97/276
f 64/80/277 66/82/278 82/98/279 80/96/280
f 66/82/281 67/83/282 83/99/283 82/98/284
f 67/83/285 65/81/286 81/97/287 83/99/288
f 68/85/289 69/84/290 85/12/291 84/11/292
f 69/84/293 70/86/294 86/13/295 85/12/296
f 70/86/297 71/87/298 87/14/299 86/13/300
f 71/87/301 68/85/302 84/11/303 87/14/304
f 72/89/305 73/88/306 89/24/307 88/23/308
f 73/88/309 74/90/310 90/25/311 89/24/312
f 74/90/313 75/91/314 91/26/315 90/25/316
f 75/91/317 72/89/318 88/23/319 91/26/320
f 77/93/321 76/92/322 92/37/323 93/36/324
f 76/92/325 78/94/326 94/38/327 92/37/328
f 78/94/329 79/95/330 95/39/331 94/38/332
f 79/95/333 77/93/334 93/36/335 95/39/336
f 81/97/337 80/96/338 96/44/339 97/43/340
f 80/96/341 82/98/342 98/45/343 96/44/344
f 82/98/345 83/99/346 99/46/347 98/45/348
f 83/99/349 81/97/350 97/43/351 99/46/352
