# This file uses centimeters as units for non-parametric coordinates.

mtllib TableWorkingDrawerBox.mtl
g default
v -1.980000 1.400000 1.480000
v -1.900000 1.400000 1.480000
v -1.900000 1.400000 1.000000
v -1.980000 1.400000 1.000000
v -1.900000 1.150000 1.000000
v -1.980000 1.150000 1.000000
v -1.900000 1.150000 1.480000
v -1.980000 1.150000 1.480000
v 1.980001 1.150000 1.480000
v 1.980001 1.150000 1.000000
v 1.980001 1.400000 1.000000
v 1.980001 1.400000 1.480000
v -1.266665 1.400000 1.480000
v -1.266665 1.400000 1.000000
v -1.266665 1.150000 1.000000
v -1.266665 1.150000 1.480000
v 1.900000 1.400000 1.480000
v 1.900000 1.150000 1.480000
v 1.900000 1.400000 1.000000
v 1.900000 1.150000 1.000000
v -0.633332 1.400000 1.480000
v -0.633332 1.400000 1.000000
v -0.633332 1.150000 1.000000
v -0.633332 1.150000 1.480000
v 0.000001 1.400000 1.480000
v 0.000001 1.400000 1.000000
v 0.000001 1.150000 1.000000
v 0.000001 1.150000 1.480000
v 0.633333 1.400000 1.480000
v 0.633333 1.400000 1.000000
v 0.633333 1.150000 1.000000
v 0.633333 1.150000 1.480000
v 1.266667 1.400000 1.480000
v 1.266667 1.400000 1.000000
v 1.266667 1.150000 1.000000
v 1.266667 1.150000 1.480000
v -1.316665 1.350000 1.480000
v -1.316665 1.200000 1.480000
v -1.850000 1.350000 1.480000
v -1.850000 1.200000 1.480000
v -0.683332 1.350000 1.480000
v -0.683332 1.200000 1.480000
v -1.216666 1.350000 1.480000
v -1.216666 1.200000 1.480000
v -0.049999 1.350000 1.480000
v -0.049999 1.200000 1.480000
v -0.583332 1.350000 1.480000
v -0.583332 1.200000 1.480000
v 0.583333 1.350000 1.480000
v 0.583333 1.200000 1.480000
v 0.050001 1.350000 1.480000
v 0.050001 1.200000 1.480000
v 1.216667 1.350000 1.480000
v 1.216667 1.200000 1.480000
v 0.683333 1.350000 1.480000
v 0.683333 1.200000 1.480000
v 1.850000 1.350000 1.480000
v 1.850000 1.200000 1.480000
v 1.316666 1.350000 1.480000
v 1.316666 1.200000 1.480000
vt 0.066843 0.133578
vt 0.077517 0.133590
vt 0.077396 0.197667
vt 0.066718 0.197646
vt 0.067023 0.002755
vt 0.077701 0.002775
vt 0.077637 0.036148
vt 0.066958 0.036127
vt 0.077520 0.100218
vt 0.066835 0.100206
vt 0.595491 0.100893
vt 0.659563 0.101017
vt 0.659499 0.134388
vt 0.595426 0.134265
vt 0.002755 0.100250
vt 0.002778 0.133621
vt 0.162055 0.133759
vt 0.161942 0.197832
vt 0.162235 0.002946
vt 0.162177 0.036316
vt 0.162068 0.100388
vt 0.584747 0.134252
vt 0.584812 0.100880
vt 0.584714 0.198327
vt 0.595395 0.198334
vt 0.584854 0.036808
vt 0.584875 0.003435
vt 0.595553 0.003443
vt 0.595532 0.036815
vt 0.246592 0.133906
vt 0.246495 0.197978
vt 0.246764 0.003087
vt 0.246714 0.036459
vt 0.246619 0.100534
vt 0.331131 0.134027
vt 0.331050 0.198101
vt 0.331290 0.003212
vt 0.331248 0.036583
vt 0.331168 0.100655
vt 0.415669 0.134130
vt 0.415606 0.198202
vt 0.415816 0.003312
vt 0.415782 0.036684
vt 0.415718 0.100758
vt 0.500207 0.134206
vt 0.500162 0.198278
vt 0.500342 0.003392
vt 0.500317 0.036762
vt 0.500267 0.100836
vt 0.155388 0.127076
vt 0.155385 0.107053
vt 0.084196 0.126922
vt 0.084191 0.106899
vt 0.239926 0.127221
vt 0.239934 0.107199
vt 0.168734 0.127094
vt 0.168739 0.107071
vt 0.324465 0.127342
vt 0.324483 0.107318
vt 0.253272 0.127241
vt 0.253289 0.107219
vt 0.409003 0.127445
vt 0.409032 0.107422
vt 0.337812 0.127362
vt 0.337837 0.107339
vt 0.493543 0.127522
vt 0.493582 0.107499
vt 0.422350 0.127465
vt 0.422387 0.107442
vt 0.578082 0.127568
vt 0.578127 0.107545
vt 0.506889 0.127543
vt 0.506934 0.107520
vn 0.000000 1.000000 0.000000
vn 0.000000 1.000000 0.000000
vn 0.000000 1.000000 0.000000
vn 0.000000 1.000000 0.000000
vn 0.000000 0.000000 -1.000000
vn 0.000000 0.000000 -1.000000
vn 0.000000 0.000000 -1.000000
vn 0.000000 0.000000 -1.000000
vn 0.000000 -1.000000 0.000000
vn 0.000000 -1.000000 0.000000
vn 0.000000 -1.000000 0.000000
vn 0.000000 -1.000000 0.000000
vn 1.000000 0.000000 0.000000
vn 1.000000 0.000000 0.000000
vn 1.000000 0.000000 0.000000
vn 1.000000 0.000000 0.000000
vn -1.000000 0.000000 0.000000
vn -1.000000 0.000000 0.000000
vn -1.000000 0.000000 0.000000
vn -1.000000 0.000000 0.000000
vn 0.000000 0.000000 1.000000
vn 0.000000 0.000000 1.000000
vn 0.000000 0.000000 1.000000
vn 0.000000 0.000000 1.000000
vn 0.000000 1.000000 0.000000
vn 0.000000 1.000000 0.000000
vn 0.000000 1.000000 0.000000
vn 0.000000 1.000000 0.000000
vn 0.000000 0.000000 -1.000000
vn 0.000000 0.000000 -1.000000
vn 0.000000 0.000000 -1.000000
vn 0.000000 0.000000 -1.000000
vn 0.000000 -1.000000 0.000000
vn 0.000000 -1.000000 0.000000
vn 0.000000 -1.000000 0.000000
vn 0.000000 -1.000000 0.000000
vn 0.000000 0.000000 1.000000
vn 0.000000 0.000000 1.000000
vn 0.000000 0.000000 1.000000
vn 0.000000 0.000000 1.000000
vn 0.000000 1.000000 0.000000
vn 0.000000 1.000000 0.000000
vn 0.000000 1.000000 0.000000
vn 0.000000 1.000000 0.000000
vn 0.000000 0.000000 -1.000000
vn 0.000000 0.000000 -1.000000
vn 0.000000 0.000000 -1.000000
vn 0.000000 0.000000 -1.000000
vn 0.000000 -1.000000 0.000000
vn 0.000000 -1.000000 0.000000
vn 0.000000 -1.000000 0.000000
vn 0.000000 -1.000000 0.000000
vn 0.000000 1.000000 0.000000
vn 0.000000 1.000000 0.000000
vn 0.000000 1.000000 0.000000
vn 0.000000 1.000000 0.000000
vn 0.000000 0.000000 -1.000000
vn 0.000000 0.000000 -1.000000
vn 0.000000 0.000000 -1.000000
vn 0.000000 0.000000 -1.000000
vn 0.000000 -1.000000 0.000000
vn 0.000000 -1.000000 0.000000
vn 0.000000 -1.000000 0.000000
vn 0.000000 -1.000000 0.000000
vn 0.000000 1.000000 0.000000
vn 0.000000 1.000000 0.000000
vn 0.000000 1.000000 0.000000
vn 0.000000 1.000000 0.000000
vn 0.000000 0.000000 -1.000000
vn 0.000000 0.000000 -1.000000
vn 0.000000 0.000000 -1.000000
vn 0.000000 0.000000 -1.000000
vn 0.000000 -1.000000 0.000000
vn 0.000000 -1.000000 0.000000
vn 0.000000 -1.000000 0.000000
vn 0.000000 -1.000000 0.000000
vn 0.000000 1.000000 0.000000
vn 0.000000 1.000000 0.000000
vn 0.000000 1.000000 0.000000
vn 0.000000 1.000000 0.000000
vn 0.000000 0.000000 -1.000000
vn 0.000000 0.000000 -1.000000
vn 0.000000 0.000000 -1.000000
vn 0.000000 0.000000 -1.000000
vn 0.000000 -1.000000 0.000000
vn 0.000000 -1.000000 0.000000
vn 0.000000 -1.000000 0.000000
vn 0.000000 -1.000000 0.000000
vn 0.000000 1.000000 0.000000
vn 0.000000 1.000000 0.000000
vn 0.000000 1.000000 0.000000
vn 0.000000 1.000000 0.000000
vn 0.000000 0.000000 -1.000000
vn 0.000000 0.000000 -1.000000
vn 0.000000 0.000000 -1.000000
vn 0.000000 0.000000 -1.000000
vn 0.000000 -1.000000 0.000000
vn 0.000000 -1.000000 0.000000
vn 0.000000 -1.000000 0.000000
vn 0.000000 -1.000000 0.000000
vn 0.000000 1.000000 0.000000
vn 0.000000 1.000000 0.000000
vn 0.000000 1.000000 0.000000
vn 0.000000 1.000000 0.000000
vn 0.000000 0.000000 -1.000000
vn 0.000000 0.000000 -1.000000
vn 0.000000 0.000000 -1.000000
vn 0.000000 0.000000 -1.000000
vn 0.000000 -1.000000 0.000000
vn 0.000000 -1.000000 0.000000
vn 0.000000 -1.000000 0.000000
vn 0.000000 -1.000000 0.000000
vn 0.000000 0.000000 1.000000
vn 0.000000 0.000000 1.000000
vn 0.000000 0.000000 1.000000
vn 0.000000 0.000000 1.000000
vn 0.000000 0.000000 1.000000
vn 0.000000 0.000000 1.000000
vn 0.000000 0.000000 1.000000
vn 0.000000 0.000000 1.000000
vn 0.000000 0.000000 1.000000
vn 0.000000 0.000000 1.000000
vn 0.000000 0.000000 1.000000
vn 0.000000 0.000000 1.000000
vn 0.000000 0.000000 1.000000
vn 0.000000 0.000000 1.000000
vn 0.000000 0.000000 1.000000
vn 0.000000 0.000000 1.000000
vn 0.000000 0.000000 1.000000
vn 0.000000 0.000000 1.000000
vn 0.000000 0.000000 1.000000
vn 0.000000 0.000000 1.000000
vn 0.000000 0.000000 1.000000
vn 0.000000 0.000000 1.000000
vn 0.000000 0.000000 1.000000
vn 0.000000 0.000000 1.000000
vn 0.000000 0.000000 1.000000
vn 0.000000 0.000000 1.000000
vn 0.000000 0.000000 1.000000
vn 0.000000 0.000000 1.000000
vn 0.000000 0.000000 1.000000
vn 0.000000 0.000000 1.000000
vn 0.000000 0.000000 1.000000
vn 0.000000 0.000000 1.000000
vn 0.000000 0.000000 1.000000
vn 0.000000 0.000000 1.000000
vn 0.000000 0.000000 1.000000
vn 0.000000 0.000000 1.000000
vn 0.000000 0.000000 1.000000
vn 0.000000 0.000000 1.000000
vn 0.000000 0.000000 1.000000
vn 0.000000 0.000000 1.000000
vn 0.000000 0.000000 1.000000
vn 0.000000 0.000000 1.000000
vn 0.000000 0.000000 1.000000
vn 0.000000 0.000000 1.000000
vn 0.000000 0.000000 1.000000
vn 0.000000 0.000000 1.000000
vn 0.000000 0.000000 1.000000
vn 0.000000 0.000000 1.000000
vn 0.000000 0.000000 1.000000
vn 0.000000 0.000000 1.000000
vn 0.000000 0.000000 1.000000
vn 0.000000 0.000000 1.000000
vn 0.000000 0.000000 1.000000
vn 0.000000 0.000000 1.000000
vn 0.000000 0.000000 1.000000
vn 0.000000 0.000000 1.000000
vn 0.000000 0.000000 1.000000
vn 0.000000 0.000000 1.000000
vn 0.000000 0.000000 1.000000
vn 0.000000 0.000000 1.000000
vn 0.000000 0.000000 1.000000
vn 0.000000 0.000000 1.000000
vn 0.000000 0.000000 1.000000
vn 0.000000 0.000000 1.000000
vn 0.000000 0.000000 1.000000
vn 0.000000 0.000000 1.000000
vn 0.000000 0.000000 1.000000
vn 0.000000 0.000000 1.000000
vn 0.000000 0.000000 1.000000
vn 0.000000 0.000000 1.000000
vn 0.000000 0.000000 1.000000
vn 0.000000 0.000000 1.000000
vn 0.000000 0.000000 1.000000
vn 0.000000 0.000000 1.000000
vn 0.000000 0.000000 1.000000
vn 0.000000 0.000000 1.000000
vn 0.000000 0.000000 1.000000
vn 0.000000 0.000000 1.000000
vn 0.000000 0.000000 1.000000
vn 0.000000 0.000000 1.000000
vn 0.000000 0.000000 1.000000
vn 0.000000 0.000000 1.000000
vn 0.000000 0.000000 1.000000
vn 0.000000 0.000000 1.000000
vn 0.000000 0.000000 1.000000
vn 0.000000 0.000000 1.000000
vn 0.000000 0.000000 1.000000
vn 0.000000 0.000000 1.000000
vn 0.000000 0.000000 1.000000
vn 0.000000 0.000000 1.000000
vn 0.000000 0.000000 1.000000
vn 0.000000 0.000000 1.000000
vn 0.000000 0.000000 1.000000
vn 0.000000 0.000000 1.000000
vn 0.000000 0.000000 1.000000
vn 0.000000 0.000000 1.000000
s off
g TableWorkingDrawerBox TableWorking
usemtl initialShadingGroup
f 1/1/1 2/2/2 3/3/3 4/4/4
f 4/5/5 3/6/6 5/7/7 6/8/8
f 6/8/9 5/7/10 7/9/11 8/10/12
f 9/11/13 10/12/14 11/13/15 12/14/16
f 6/15/17 8/10/18 1/1/19 4/16/20
f 7/9/21 2/2/22 1/1/23 8/10/24
f 3/3/25 2/2/26 13/17/27 14/18/28
f 5/7/29 3/6/30 14/19/31 15/20/32
f 7/9/33 5/7/34 15/20/35 16/21/36
f 9/11/37 12/14/38 17/22/39 18/23/40
f 19/24/41 17/22/42 12/14/43 11/25/44
f 20/26/45 19/27/46 11/28/47 10/29/48
f 18/23/49 20/26/50 10/29/51 9/11/52
f 14/18/53 13/17/54 21/30/55 22/31/56
f 15/20/57 14/19/58 22/32/59 23/33/60
f 16/21/61 15/20/62 23/33/63 24/34/64
f 22/31/65 21/30/66 25/35/67 26/36/68
f 23/33/69 22/32/70 26/37/71 27/38/72
f 24/34/73 23/33/74 27/38/75 28/39/76
f 26/36/77 25/35/78 29/40/79 30/41/80
f 27/38/81 26/37/82 30/42/83 31/43/84
f 28/39/85 27/38/86 31/43/87 32/44/88
f 30/41/89 29/40/90 33/45/91 34/46/92
f 31/43/93 30/42/94 34/47/95 35/48/96
f 32/44/97 31/43/98 35/48/99 36/49/100
f 34/46/101 33/45/102 17/22/103 19/24/104
f 35/48/105 34/47/106 19/27/107 20/26/108
f 36/49/109 35/48/110 20/26/111 18/23/112
f 16/21/113 13/17/114 37/50/115 38/51/116
f 13/17/117 2/2/118 39/52/119 37/50/120
f 2/2/121 7/9/122 40/53/123 39/52/124
f 7/9/125 16/21/126 38/51/127 40/53/128
f 24/34/129 21/30/130 41/54/131 42/55/132
f 21/30/133 13/17/134 43/56/135 41/54/136
f 13/17/137 16/21/138 44/57/139 43/56/140
f 16/21/141 24/34/142 42/55/143 44/57/144
f 28/39/145 25/35/146 45/58/147 46/59/148
f 25/35/149 21/30/150 47/60/151 45/58/152
f 21/30/153 24/34/154 48/61/155 47/60/156
f 24/34/157 28/39/158 46/59/159 48/61/160
f 32/44/161 29/40/162 49/62/163 50/63/164
f 29/40/165 25/35/166 51/64/167 49/62/168
f 25/35/169 28/39/170 52/65/171 51/64/172
f 28/39/173 32/44/174 50/63/175 52/65/176
f 36/49/177 33/45/178 53/66/179 54/67/180
f 33/45/181 29/40/182 55/68/183 53/66/184
f 29/40/185 32/44/186 56/69/187 55/68/188
f 32/44/189 36/49/190 54/67/191 56/69/192
f 18/23/193 17/22/194 57/70/195 58/71/196
f 17/22/197 33/45/198 59/72/199 57/70/200
f 33/45/201 36/49/202 60/73/203 59/72/204
f 36/49/205 18/23/206 58/71/207 60/73/208
