# This file uses centimeters as units for non-parametric coordinates.

mtllib PipeShort.mtl
g default
v 0.000000 -0.118882 -0.038627
v 0.000000 -0.101127 -0.073473
v 0.166667 -0.101127 -0.073473
v 0.166667 -0.118882 -0.038627
v 0.000000 -0.073473 -0.101127
v 0.166667 -0.073473 -0.101127
v 0.000000 -0.038627 -0.118882
v 0.166667 -0.038627 -0.118882
v 0.000000 0.000000 -0.125000
v 0.166667 0.000000 -0.125000
v 0.000000 0.038627 -0.118882
v 0.166667 0.038627 -0.118882
v 0.000000 0.073473 -0.101127
v 0.166667 0.073473 -0.101127
v 0.000000 0.101127 -0.073473
v 0.166667 0.101127 -0.073473
v 0.000000 0.118882 -0.038627
v 0.166667 0.118882 -0.038627
v 0.000000 0.125000 0.000000
v 0.166667 0.125000 0.000000
v 0.000000 0.118882 0.038627
v 0.166667 0.118882 0.038627
v 0.000000 0.101127 0.073473
v 0.166667 0.101127 0.073473
v 0.000000 0.073473 0.101127
v 0.166667 0.073473 0.101127
v 0.000000 0.038627 0.118882
v 0.166667 0.038627 0.118882
v 0.000000 0.000000 0.125000
v 0.166667 0.000000 0.125000
v 0.000000 -0.038627 0.118882
v 0.166667 -0.038627 0.118882
v 0.000000 -0.073473 0.101127
v 0.166667 -0.073473 0.101127
v 0.000000 -0.101127 0.073473
v 0.166667 -0.101127 0.073473
v 0.000000 -0.118882 0.038627
v 0.166667 -0.118882 0.038627
v 0.000000 -0.125000 0.000000
v 0.166667 -0.125000 0.000000
v 0.333333 -0.118882 -0.038627
v 0.333333 -0.125000 0.000000
v 0.333333 -0.118882 0.038627
v 0.333333 -0.101127 0.073473
v 0.333333 -0.073473 0.101127
v 0.333333 -0.038627 0.118882
v 0.333333 0.000000 0.125000
v 0.333333 0.038627 0.118882
v 0.333333 0.073473 0.101127
v 0.333333 0.101127 0.073473
v 0.333333 0.118882 0.038627
v 0.333333 0.125000 0.000000
v 0.333333 0.118882 -0.038627
v 0.333333 0.101127 -0.073473
v 0.333333 0.073473 -0.101127
v 0.333333 0.038627 -0.118882
v 0.333333 0.000000 -0.125000
v 0.333333 -0.038627 -0.118882
v 0.333333 -0.073473 -0.101127
v 0.333333 -0.101127 -0.073473
v 0.500000 -0.118882 -0.038627
v 0.500000 -0.125000 0.000000
v 0.500000 -0.118882 0.038627
v 0.500000 -0.101127 0.073473
v 0.500000 -0.073473 0.101127
v 0.500000 -0.038627 0.118882
v 0.500000 0.000000 0.125000
v 0.500000 0.038627 0.118882
v 0.500000 0.073473 0.101127
v 0.500000 0.101127 0.073473
v 0.500000 0.118882 0.038627
v 0.500000 0.125000 0.000000
v 0.500000 0.118882 -0.038627
v 0.500000 0.101127 -0.073473
v 0.500000 0.073473 -0.101127
v 0.500000 0.038627 -0.118882
v 0.500000 0.000000 -0.125000
v 0.500000 -0.038627 -0.118882
v 0.500000 -0.073473 -0.101127
v 0.500000 -0.101127 -0.073473
vt 0.764866 0.411151
vt 0.764866 0.397301
vt 0.823900 0.397300
vt 0.823900 0.411150
vt 0.764866 0.383450
vt 0.823900 0.383450
vt 0.764867 0.369600
vt 0.823901 0.369599
vt 0.764867 0.355751
vt 0.823901 0.355749
vt 0.764867 0.341900
vt 0.823901 0.341898
vt 0.764867 0.328049
vt 0.823901 0.328046
vt 0.764867 0.314196
vt 0.823901 0.314194
vt 0.764866 0.300341
vt 0.823901 0.300343
vt 0.764868 0.286487
vt 0.823902 0.286492
vt 0.764868 0.563507
vt 0.764868 0.549654
vt 0.823903 0.549654
vt 0.823902 0.563506
vt 0.764868 0.535801
vt 0.823903 0.535803
vt 0.764868 0.521951
vt 0.823903 0.521951
vt 0.764868 0.508103
vt 0.823902 0.508099
vt 0.764867 0.494252
vt 0.823901 0.494248
vt 0.764866 0.480400
vt 0.823900 0.480397
vt 0.764866 0.466550
vt 0.823900 0.466547
vt 0.764865 0.452699
vt 0.823900 0.452698
vt 0.764865 0.438849
vt 0.823900 0.438849
vt 0.764866 0.425000
vt 0.823900 0.425000
vt 0.882934 0.411149
vt 0.882934 0.425000
vt 0.882934 0.438850
vt 0.882934 0.452700
vt 0.882934 0.466551
vt 0.882934 0.480399
vt 0.882935 0.494249
vt 0.882936 0.508100
vt 0.882937 0.521952
vt 0.882937 0.535804
vt 0.882937 0.549656
vt 0.882935 0.563508
vt 0.882935 0.286495
vt 0.882935 0.300347
vt 0.882935 0.314197
vt 0.882935 0.328047
vt 0.882935 0.341898
vt 0.882935 0.355748
vt 0.882935 0.369599
vt 0.882934 0.383450
vt 0.882934 0.397300
vt 0.941968 0.411150
vt 0.941968 0.425001
vt 0.941968 0.438851
vt 0.941969 0.452702
vt 0.941969 0.466553
vt 0.941969 0.480404
vt 0.941969 0.494254
vt 0.941970 0.508104
vt 0.941971 0.521956
vt 0.941971 0.535807
vt 0.941971 0.549661
vt 0.941969 0.563515
vt 0.941969 0.286491
vt 0.941969 0.300344
vt 0.941969 0.314197
vt 0.941969 0.328048
vt 0.941969 0.341899
vt 0.941969 0.355751
vt 0.941969 0.369600
vt 0.941969 0.383450
vt 0.941968 0.397300
vn 0.000000 -0.891006 -0.453992
vn 0.000000 -0.891006 -0.453992
vn 0.000000 -0.891006 -0.453992
vn 0.000000 -0.891006 -0.453992
vn 0.000000 -0.808999 -0.587811
vn 0.000000 -0.587811 -0.808999
vn 0.000000 -0.587811 -0.808999
vn 0.000000 -0.808999 -0.587811
vn 0.000000 -0.587811 -0.808999
vn 0.000000 -0.309013 -0.951058
vn 0.000000 -0.309013 -0.951058
vn 0.000000 -0.587811 -0.808999
vn 0.000000 -0.309013 -0.951058
vn 0.000000 0.000000 -1.000000
vn 0.000000 0.000000 -1.000000
vn 0.000000 -0.309013 -0.951058
vn 0.000000 0.000000 -1.000000
vn 0.000000 0.309013 -0.951058
vn 0.000000 0.309013 -0.951058
vn 0.000000 0.000000 -1.000000
vn 0.000000 0.309013 -0.951058
vn 0.000000 0.587811 -0.808999
vn 0.000000 0.587811 -0.808999
vn 0.000000 0.309013 -0.951058
vn 0.000000 0.587811 -0.808999
vn 0.000000 0.808999 -0.587811
vn 0.000000 0.808999 -0.587811
vn 0.000000 0.587811 -0.808999
vn 0.000000 0.808999 -0.587811
vn 0.000000 0.951058 -0.309013
vn 0.000000 0.951058 -0.309013
vn 0.000000 0.808999 -0.587811
vn 0.000000 0.951058 -0.309013
vn 0.000000 1.000000 0.000000
vn 0.000000 1.000000 0.000000
vn 0.000000 0.951058 -0.309013
vn 0.000000 1.000000 0.000000
vn 0.000000 0.951058 0.309013
vn 0.000000 0.951058 0.309013
vn 0.000000 1.000000 0.000000
vn 0.000000 0.951058 0.309013
vn 0.000000 0.808999 0.587811
vn 0.000000 0.808999 0.587811
vn 0.000000 0.951058 0.309013
vn 0.000000 0.808999 0.587811
vn 0.000000 0.587811 0.808999
vn 0.000000 0.587811 0.808999
vn 0.000000 0.808999 0.587811
vn 0.000000 0.587811 0.808999
vn 0.000000 0.309013 0.951058
vn 0.000000 0.309013 0.951058
vn 0.000000 0.587811 0.808999
vn 0.000000 0.309013 0.951058
vn 0.000000 0.000000 1.000000
vn 0.000000 0.000000 1.000000
vn 0.000000 0.309013 0.951058
vn 0.000000 0.000000 1.000000
vn 0.000000 -0.309013 0.951058
vn 0.000000 -0.309013 0.951058
vn 0.000000 0.000000 1.000000
vn 0.000000 -0.309013 0.951058
vn 0.000000 -0.587811 0.808999
vn 0.000000 -0.587811 0.808999
vn 0.000000 -0.309013 0.951058
vn 0.000000 -0.587811 0.808999
vn 0.000000 -0.808999 0.587811
vn 0.000000 -0.808999 0.587811
vn 0.000000 -0.587811 0.808999
vn 0.000000 -0.808999 0.587811
vn 0.000000 -0.951058 0.309013
vn 0.000000 -0.951058 0.309013
vn 0.000000 -0.808999 0.587811
vn 0.000000 -0.951058 0.309013
vn 0.000000 -1.000000 0.000000
vn 0.000000 -1.000000 0.000000
vn 0.000000 -0.951058 0.309013
vn 0.000000 -1.000000 0.000000
vn 0.000000 -0.951058 -0.309013
vn 0.000000 -0.951058 -0.309013
vn 0.000000 -1.000000 0.000000
vn 0.000000 -1.000000 0.000000
vn 0.000000 -0.951058 -0.309013
vn 0.000000 -0.951058 -0.309013
vn 0.000000 -1.000000 0.000000
vn 0.000000 -0.951058 0.309013
vn 0.000000 -1.000000 0.000000
vn 0.000000 -1.000000 0.000000
vn 0.000000 -0.951058 0.309013
vn 0.000000 -0.808999 0.587811
vn 0.000000 -0.951058 0.309013
vn 0.000000 -0.951058 0.309013
vn 0.000000 -0.808999 0.587811
vn 0.000000 -0.587811 0.808999
vn 0.000000 -0.808999 0.587811
vn 0.000000 -0.808999 0.587811
vn 0.000000 -0.587811 0.808999
vn 0.000000 -0.309013 0.951058
vn 0.000000 -0.587811 0.808999
vn 0.000000 -0.587811 0.808999
vn 0.000000 -0.309013 0.951058
vn 0.000000 0.000000 1.000000
vn 0.000000 -0.309013 0.951058
vn 0.000000 -0.309013 0.951058
vn 0.000000 0.000000 1.000000
vn 0.000000 0.309013 0.951058
vn 0.000000 0.000000 1.000000
vn 0.000000 0.000000 1.000000
vn 0.000000 0.309013 0.951058
vn 0.000000 0.587811 0.808999
vn 0.000000 0.309013 0.951058
vn 0.000000 0.309013 0.951058
vn 0.000000 0.587811 0.808999
vn 0.000000 0.808999 0.587811
vn 0.000000 0.587811 0.808999
vn 0.000000 0.587811 0.808999
vn 0.000000 0.808999 0.587811
vn 0.000000 0.951058 0.309013
vn 0.000000 0.808999 0.587811
vn 0.000000 0.808999 0.587811
vn 0.000000 0.951058 0.309013
vn 0.000000 1.000000 0.000000
vn 0.000000 0.951058 0.309013
vn 0.000000 0.951058 0.309013
vn 0.000000 1.000000 0.000000
vn 0.000000 0.951058 -0.309013
vn 0.000000 1.000000 0.000000
vn 0.000000 1.000000 0.000000
vn 0.000000 0.951058 -0.309013
vn 0.000000 0.808999 -0.587811
vn 0.000000 0.951058 -0.309013
vn 0.000000 0.951058 -0.309013
vn 0.000000 0.808999 -0.587811
vn 0.000000 0.587811 -0.808999
vn 0.000000 0.808999 -0.587811
vn 0.000000 0.808999 -0.587811
vn 0.000000 0.587811 -0.808999
vn 0.000000 0.309013 -0.951058
vn 0.000000 0.587811 -0.808999
vn 0.000000 0.587811 -0.808999
vn 0.000000 0.309013 -0.951058
vn 0.000000 0.000000 -1.000000
vn 0.000000 0.309013 -0.951058
vn 0.000000 0.309013 -0.951058
vn 0.000000 0.000000 -1.000000
vn 0.000000 -0.309013 -0.951058
vn 0.000000 0.000000 -1.000000
vn 0.000000 0.000000 -1.000000
vn 0.000000 -0.309013 -0.951058
vn 0.000000 -0.587811 -0.808999
vn 0.000000 -0.309013 -0.951058
vn 0.000000 -0.309013 -0.951058
vn 0.000000 -0.587811 -0.808999
vn 0.000000 -0.808999 -0.587811
vn 0.000000 -0.587811 -0.808999
vn 0.000000 -0.587811 -0.808999
vn 0.000000 -0.808999 -0.587811
vn 0.000000 -0.951058 -0.309013
vn 0.000000 -0.808999 -0.587811
vn 0.000000 -0.808999 -0.587811
vn 0.000000 -0.951058 -0.309013
vn 0.000000 -1.000000 0.000000
vn 0.000000 -0.951058 -0.309013
vn 0.000000 -0.951058 -0.309013
vn 0.000000 -1.000000 0.000000
vn 0.000000 -0.951058 0.309013
vn 0.000000 -1.000000 0.000000
vn 0.000000 -1.000000 0.000000
vn 0.000000 -0.951058 0.309013
vn 0.000000 -0.808999 0.587811
vn 0.000000 -0.951058 0.309013
vn 0.000000 -0.951058 0.309013
vn 0.000000 -0.808999 0.587811
vn 0.000000 -0.587811 0.808999
vn 0.000000 -0.808999 0.587811
vn 0.000000 -0.808999 0.587811
vn 0.000000 -0.587811 0.808999
vn 0.000000 -0.309013 0.951058
vn 0.000000 -0.587811 0.808999
vn 0.000000 -0.587811 0.808999
vn 0.000000 -0.309013 0.951058
vn 0.000000 0.000000 1.000000
vn 0.000000 -0.309013 0.951058
vn 0.000000 -0.309013 0.951058
vn 0.000000 0.000000 1.000000
vn 0.000000 0.309013 0.951058
vn 0.000000 0.000000 1.000000
vn 0.000000 0.000000 1.000000
vn 0.000000 0.309013 0.951058
vn 0.000000 0.587811 0.808999
vn 0.000000 0.309013 0.951058
vn 0.000000 0.309013 0.951058
vn 0.000000 0.587811 0.808999
vn 0.000000 0.808999 0.587811
vn 0.000000 0.587811 0.808999
vn 0.000000 0.587811 0.808999
vn 0.000000 0.808999 0.587811
vn 0.000000 0.951058 0.309013
vn 0.000000 0.808999 0.587811
vn 0.000000 0.808999 0.587811
vn 0.000000 0.951058 0.309013
vn 0.000000 1.000000 0.000000
vn 0.000000 0.951058 0.309013
vn 0.000000 0.951058 0.309013
vn 0.000000 1.000000 0.000000
vn 0.000000 0.951058 -0.309013
vn 0.000000 1.000000 0.000000
vn 0.000000 1.000000 0.000000
vn 0.000000 0.951058 -0.309013
vn 0.000000 0.808999 -0.587811
vn 0.000000 0.951058 -0.309013
vn 0.000000 0.951058 -0.309013
vn 0.000000 0.808999 -0.587811
vn 0.000000 0.587811 -0.808999
vn 0.000000 0.808999 -0.587811
vn 0.000000 0.808999 -0.587811
vn 0.000000 0.587811 -0.808999
vn 0.000000 0.309013 -0.951058
vn 0.000000 0.587811 -0.808999
vn 0.000000 0.587811 -0.808999
vn 0.000000 0.309013 -0.951058
vn 0.000000 0.000000 -1.000000
vn 0.000000 0.309013 -0.951058
vn 0.000000 0.309013 -0.951058
vn 0.000000 0.000000 -1.000000
vn 0.000000 -0.309013 -0.951058
vn 0.000000 0.000000 -1.000000
vn 0.000000 0.000000 -1.000000
vn 0.000000 -0.309013 -0.951058
vn 0.000000 -0.587811 -0.808999
vn 0.000000 -0.309013 -0.951058
vn 0.000000 -0.309013 -0.951058
vn 0.000000 -0.587811 -0.808999
vn 0.000000 -0.808999 -0.587811
vn 0.000000 -0.587811 -0.808999
vn 0.000000 -0.587811 -0.808999
vn 0.000000 -0.808999 -0.587811
vn 0.000000 -0.951058 -0.309013
vn 0.000000 -0.808999 -0.587811
vn 0.000000 -0.808999 -0.587811
vn 0.000000 -0.951058 -0.309013
s off
g PipeAll_PipeShort
usemtl initialShadingGroup
f 1/1/1 2/2/2 3/3/3 4/4/4
f 2/2/5 5/5/6 6/6/7 3/3/8
f 5/5/9 7/7/10 8/8/11 6/6/12
f 7/7/13 9/9/14 10/10/15 8/8/16
f 9/9/17 11/11/18 12/12/19 10/10/20
f 11/11/21 13/13/22 14/14/23 12/12/24
f 13/13/25 15/15/26 16/16/27 14/14/28
f 15/15/29 17/17/30 18/18/31 16/16/32
f 17/17/33 19/19/34 20/20/35 18/18/36
f 19/21/37 21/22/38 22/23/39 20/24/40
f 21/22/41 23/25/42 24/26/43 22/23/44
f 23/25/45 25/27/46 26/28/47 24/26/48
f 25/27/49 27/29/50 28/30/51 26/28/52
f 27/29/53 29/31/54 30/32/55 28/30/56
f 29/31/57 31/33/58 32/34/59 30/32/60
f 31/33/61 33/35/62 34/36/63 32/34/64
f 33/35/65 35/37/66 36/38/67 34/36/68
f 35/37/69 37/39/70 38/40/71 36/38/72
f 37/39/73 39/41/74 40/42/75 38/40/76
f 39/41/77 1/1/78 4/4/79 40/42/80
f 40/42/81 4/4/82 41/43/83 42/44/84
f 38/40/85 40/42/86 42/44/87 43/45/88
f 36/38/89 38/40/90 43/45/91 44/46/92
f 34/36/93 36/38/94 44/46/95 45/47/96
f 32/34/97 34/36/98 45/47/99 46/48/100
f 30/32/101 32/34/102 46/48/103 47/49/104
f 28/30/105 30/32/106 47/49/107 48/50/108
f 26/28/109 28/30/110 48/50/111 49/51/112
f 24/26/113 26/28/114 49/51/115 50/52/116
f 22/23/117 24/26/118 50/52/119 51/53/120
f 20/24/121 22/23/122 51/53/123 52/54/124
f 18/18/125 20/20/126 52/55/127 53/56/128
f 16/16/129 18/18/130 53/56/131 54/57/132
f 14/14/133 16/16/134 54/57/135 55/58/136
f 12/12/137 14/14/138 55/58/139 56/59/140
f 10/10/141 12/12/142 56/59/143 57/60/144
f 8/8/145 10/10/146 57/60/147 58/61/148
f 6/6/149 8/8/150 58/61/151 59/62/152
f 3/3/153 6/6/154 59/62/155 60/63/156
f 4/4/157 3/3/158 60/63/159 41/43/160
f 42/44/161 41/43/162 61/64/163 62/65/164
f 43/45/165 42/44/166 62/65/167 63/66/168
f 44/46/169 43/45/170 63/66/171 64/67/172
f 45/47/173 44/46/174 64/67/175 65/68/176
f 46/48/177 45/47/178 65/68/179 66/69/180
f 47/49/181 46/48/182 66/69/183 67/70/184
f 48/50/185 47/49/186 67/70/187 68/71/188
f 49/51/189 48/50/190 68/71/191 69/72/192
f 50/52/193 49/51/194 69/72/195 70/73/196
f 51/53/197 50/52/198 70/73/199 71/74/200
f 52/54/201 51/53/202 71/74/203 72/75/204
f 53/56/205 52/55/206 72/76/207 73/77/208
f 54/57/209 53/56/210 73/77/211 74/78/212
f 55/58/213 54/57/214 74/78/215 75/79/216
f 56/59/217 55/58/218 75/79/219 76/80/220
f 57/60/221 56/59/222 76/80/223 77/81/224
f 58/61/225 57/60/226 77/81/227 78/82/228
f 59/62/229 58/61/230 78/82/231 79/83/232
f 60/63/233 59/62/234 79/83/235 80/84/236
f 41/43/237 60/63/238 80/84/239 61/64/240
